<svg xmlns="http://www.w3.org/2000/svg" viewBox="0 0 100 125"><path d="M95.1 16.3c-2.2 13.8-5 33.7-21.7 37.5-4 .9-7.5.9-11.5-.1-5-1.2-7.9-5.9-13.4-5.8-9.6.3-19.1 6-24.5 13.9-.1.1-.2.2-.2.3 3 10.4 6.1 20.8 9.1 31.2 1.6 5.4-6.8 7.7-8.4 2.3C21 84.1 17.7 72.5 14.3 61L4.1 25.9c-.3-1-.2-1.8 0-2.5 0-.6.1-1.3.4-2C11.8 5.3 30.9-5 47.5 4.9 54.8 9.3 59.7 17 67.1 21.2c7.8 4.4 18.2 2.4 19.6-7.2 0-.1 0-.3.1-.4.5-2.1 2.2-2.9 3.9-2.7.3 0 .5.1.8.2.1 0 .2.1.4.1 1.6.6 3.1 2 3.2 4v.7c.1.1 0 .3 0 .4z"/><path d="M91.9 11.1c1.6.6 3.1 2 3.2 4-.1-1.9-1.6-3.3-3.2-4zM90.7 10.9c-1.7-.2-3.4.6-3.9 2.7.5-2.1 2.2-2.9 3.9-2.7z"/></svg>