<svg xmlns="http://www.w3.org/2000/svg" width="365.851" height="95.828" viewBox="0 0 365.851 95.828"><g fill="#666"><path d="M113.23 39.015V9.775h4.134c.722 0 1.226.127 1.51.384.286.256.476.717.57 1.38l.4 3.307c.93-1.748 2.022-3.12 3.276-4.118s2.736-1.498 4.446-1.498c1.35 0 2.432.295 3.25.884l-.457 5.272c-.097.342-.233.584-.414.727-.18.143-.423.214-.727.214-.286 0-.71-.048-1.27-.144a9.81 9.81 0 0 0-1.64-.143c-.778 0-1.472.114-2.08.342a5.272 5.272 0 0 0-1.64.983c-.483.427-.91.945-1.28 1.553-.37.61-.72 1.302-1.04 2.08v18.013h-7.04zM144.695 9.318c1.843 0 3.543.294 5.102.883 1.558.59 2.897 1.45 4.02 2.58 1.12 1.13 1.998 2.518 2.635 4.16.637 1.645.955 3.52.955 5.63 0 1.064-.114 1.78-.342 2.15-.23.372-.666.557-1.312.557h-18.098c.114 1.5.38 2.798.8 3.89.416 1.093.968 1.995 1.65 2.708a6.48 6.48 0 0 0 2.438 1.596c.94.353 1.98.528 3.12.528s2.124-.133 2.95-.4c.827-.265 1.55-.56 2.167-.882a49.33 49.33 0 0 0 1.624-.884c.466-.266.917-.4 1.354-.4.59 0 1.026.22 1.312.657l2.023 2.564a11.72 11.72 0 0 1-2.622 2.294 14.64 14.64 0 0 1-3.034 1.482 16.56 16.56 0 0 1-3.22.784c-1.094.152-2.152.228-3.18.228-2.032 0-3.923-.338-5.67-1.012a12.682 12.682 0 0 1-4.56-2.992c-1.293-1.32-2.31-2.954-3.05-4.902-.74-1.948-1.112-4.204-1.112-6.77 0-1.994.323-3.87.97-5.628.645-1.757 1.57-3.287 2.778-4.588 1.206-1.3 2.68-2.332 4.417-3.092 1.738-.76 3.7-1.14 5.885-1.14zm.142 5.045c-2.052 0-3.658.58-4.816 1.738-1.158 1.16-1.9 2.804-2.223 4.932h13.28c0-.912-.127-1.77-.384-2.58a6.158 6.158 0 0 0-1.154-2.123c-.514-.61-1.165-1.088-1.953-1.44-.79-.352-1.705-.527-2.75-.527zM180.376 39.015c-.665 0-1.18-.1-1.54-.3-.36-.198-.645-.602-.854-1.21l-.627-2.08c-.74.665-1.463 1.25-2.166 1.752-.704.504-1.436.926-2.195 1.27-.76.34-1.572.597-2.437.77-.865.17-1.82.255-2.864.255-1.235 0-2.375-.167-3.42-.5-1.045-.33-1.948-.83-2.708-1.495a6.715 6.715 0 0 1-1.767-2.48c-.42-.987-.628-2.136-.628-3.447 0-1.102.29-2.19.87-3.264.578-1.073 1.543-2.042 2.892-2.907 1.35-.865 3.145-1.583 5.387-2.153s5.036-.893 8.38-.97v-1.71c0-1.956-.418-3.405-1.254-4.346-.836-.94-2.043-1.41-3.62-1.41-1.14 0-2.085.133-2.835.4-.75.266-1.41.565-1.98.897-.57.333-1.087.632-1.553.898s-.983.4-1.553.4c-.495 0-.912-.13-1.255-.386a3.22 3.22 0 0 1-.827-.9l-1.254-2.25c3.362-3.078 7.41-4.617 12.14-4.617 1.71 0 3.24.28 4.59.84 1.348.562 2.488 1.34 3.42 2.338.93 1 1.638 2.19 2.122 3.578.484 1.387.728 2.907.728 4.56v18.468h-3.194zm-10.516-4.39c1.443 0 2.693-.26 3.748-.783 1.055-.522 2.085-1.315 3.092-2.38v-4.93c-2.052.095-3.767.27-5.145.527-1.377.255-2.484.583-3.32.982-.836.4-1.435.865-1.795 1.396a3.035 3.035 0 0 0-.542 1.74c0 1.234.366 2.118 1.098 2.65.73.532 1.685.798 2.864.798zM209.702 15.958c-.21.267-.413.475-.613.627-.2.152-.49.228-.87.228-.36 0-.712-.11-1.055-.328-.342-.218-.75-.465-1.226-.74a9.235 9.235 0 0 0-1.696-.742c-.655-.218-1.468-.328-2.437-.328-1.235 0-2.318.224-3.25.67a6.153 6.153 0 0 0-2.322 1.923c-.617.836-1.078 1.848-1.382 3.035-.305 1.188-.456 2.532-.456 4.033 0 1.56.166 2.945.5 4.16.33 1.217.81 2.238 1.437 3.065a6.193 6.193 0 0 0 2.28 1.882c.893.428 1.9.64 3.02.64s2.028-.136 2.723-.412c.693-.275 1.277-.58 1.753-.912a27.66 27.66 0 0 0 1.24-.912 1.87 1.87 0 0 1 1.182-.413c.57 0 .998.22 1.282.656l2.023 2.564a12.708 12.708 0 0 1-2.536 2.294 13.652 13.652 0 0 1-2.835 1.482c-.98.37-1.985.632-3.02.784a21.27 21.27 0 0 1-3.094.228c-1.804 0-3.504-.338-5.1-1.012a12.03 12.03 0 0 1-4.19-2.95c-1.196-1.292-2.142-2.874-2.835-4.745-.694-1.87-1.04-4.004-1.04-6.398 0-2.146.308-4.137.926-5.97.618-1.834 1.525-3.42 2.723-4.76s2.68-2.39 4.446-3.15c1.766-.76 3.8-1.14 6.098-1.14 2.185 0 4.1.353 5.743 1.055a14.05 14.05 0 0 1 4.433 3.02l-1.85 2.566zM224.55 39.47c-2.547 0-4.5-.716-5.857-2.15-1.358-1.435-2.038-3.416-2.038-5.943v-16.33h-2.992c-.38 0-.703-.124-.97-.37-.266-.248-.398-.618-.398-1.113V10.77l4.703-.77 1.48-7.98c.096-.38.276-.673.543-.882.267-.21.608-.313 1.026-.313h3.648v9.206h7.81v5.017h-7.81v15.846c0 .912.223 1.625.67 2.138.446.514 1.06.77 1.838.77.437 0 .803-.05 1.098-.156.294-.104.55-.214.77-.328.218-.114.413-.223.584-.328a.982.982 0 0 1 .513-.157c.21 0 .38.054.513.158.133.104.275.262.428.47l2.11 3.42a10.657 10.657 0 0 1-3.535 1.938c-1.33.436-2.708.655-4.134.655zM113.23 86.28V43.93h7.04v16.73c1.18-1.255 2.484-2.248 3.92-2.98 1.434-.73 3.073-1.096 4.916-1.096 1.69 0 3.216.333 4.574.997a9.796 9.796 0 0 1 3.477 2.865c.96 1.245 1.696 2.75 2.21 4.518.512 1.767.77 3.752.77 5.957 0 2.375-.296 4.53-.885 6.47-.59 1.938-1.43 3.596-2.52 4.973-1.094 1.378-2.41 2.446-3.948 3.206s-3.25 1.14-5.13 1.14c-.912 0-1.744-.09-2.494-.27a8.905 8.905 0 0 1-2.052-.757 8.36 8.36 0 0 1-1.71-1.183 14.458 14.458 0 0 1-1.496-1.554l-.314 1.967c-.113.494-.31.846-.584 1.055s-.65.313-1.126.313h-4.647zm13.453-24.224c-1.35 0-2.527.31-3.534.926-1.008.618-1.967 1.487-2.88 2.608V78.7c.8.988 1.668 1.677 2.608 2.066s1.934.584 2.98.584c1.082 0 2.056-.194 2.92-.584.864-.39 1.6-.998 2.21-1.824s1.072-1.88 1.395-3.163c.323-1.284.484-2.818.484-4.605 0-3.21-.532-5.533-1.596-6.968-1.062-1.434-2.592-2.15-4.587-2.15zM157.092 56.584c2.166 0 4.137.352 5.914 1.054 1.776.703 3.296 1.7 4.56 2.993s2.237 2.87 2.92 4.732c.686 1.862 1.027 3.942 1.027 6.24 0 2.32-.342 4.41-1.026 6.272-.684 1.862-1.657 3.448-2.92 4.76-1.265 1.31-2.784 2.317-4.56 3.02-1.778.703-3.75 1.055-5.915 1.055-2.186 0-4.17-.353-5.956-1.056-1.786-.703-3.312-1.71-4.575-3.02-1.263-1.312-2.24-2.897-2.934-4.76-.694-1.862-1.04-3.952-1.04-6.27 0-2.3.346-4.38 1.04-6.242.693-1.862 1.67-3.44 2.935-4.73s2.79-2.29 4.576-2.994c1.785-.703 3.77-1.054 5.956-1.054zm0 24.71c2.432 0 4.232-.818 5.4-2.452 1.17-1.634 1.753-4.028 1.753-7.182 0-3.154-.584-5.56-1.753-7.21-1.168-1.654-2.97-2.48-5.4-2.48-2.47 0-4.3.832-5.486 2.494-1.188 1.664-1.78 4.06-1.78 7.197 0 3.136.593 5.525 1.78 7.168 1.187 1.643 3.017 2.465 5.486 2.465zM183.74 48.518c0 .608-.124 1.18-.37 1.71a4.707 4.707 0 0 1-.983 1.397c-.41.4-.89.717-1.44.955a4.416 4.416 0 0 1-1.767.356 4.234 4.234 0 0 1-1.724-.356 4.555 4.555 0 0 1-1.41-.955 4.647 4.647 0 0 1-.956-1.397 4.15 4.15 0 0 1-.355-1.71c0-.627.118-1.215.355-1.767a4.55 4.55 0 0 1 .955-1.424c.4-.4.87-.717 1.41-.955a4.247 4.247 0 0 1 1.725-.355c.627 0 1.216.12 1.768.356.55.24 1.03.557 1.44.956.407.4.734.874.98 1.425s.372 1.14.372 1.768zm-.97 8.52V86.28h-7.067V57.04h7.068zM195.65 43.93v42.35h-7.038V43.93h7.04zM213.72 56.584c1.843 0 3.543.294 5.102.883 1.558.59 2.897 1.45 4.02 2.58 1.12 1.13 1.998 2.517 2.635 4.16.637 1.644.955 3.52.955 5.63 0 1.063-.114 1.78-.342 2.15-.23.37-.666.556-1.312.556H206.68c.114 1.5.38 2.798.8 3.89.416 1.094.968 1.996 1.65 2.708a6.48 6.48 0 0 0 2.438 1.598c.94.352 1.98.527 3.12.527s2.124-.133 2.95-.4a13.87 13.87 0 0 0 2.167-.883 49.468 49.468 0 0 0 1.624-.883c.465-.268.916-.4 1.353-.4.59 0 1.026.22 1.312.655l2.023 2.565a11.72 11.72 0 0 1-2.622 2.294 14.69 14.69 0 0 1-3.035 1.482c-1.054.37-2.127.63-3.22.783s-2.15.228-3.178.228c-2.033 0-3.924-.338-5.672-1.012a12.697 12.697 0 0 1-4.56-2.993c-1.292-1.32-2.31-2.954-3.05-4.9-.74-1.948-1.11-4.205-1.11-6.77 0-1.995.322-3.87.968-5.63.646-1.756 1.572-3.286 2.78-4.587 1.205-1.3 2.678-2.332 4.416-3.092 1.74-.76 3.7-1.14 5.886-1.14zm.143 5.044c-2.052 0-3.658.58-4.816 1.738-1.16 1.16-1.9 2.803-2.224 4.93h13.28c0-.91-.127-1.77-.384-2.58a6.158 6.158 0 0 0-1.155-2.122c-.513-.608-1.164-1.087-1.952-1.44-.79-.35-1.705-.526-2.75-.526zM230.278 86.28V57.04h4.133c.723 0 1.227.127 1.512.384.285.257.475.718.57 1.382l.398 3.306c.93-1.748 2.023-3.12 3.277-4.118s2.736-1.497 4.446-1.497c1.35 0 2.432.295 3.25.884l-.457 5.273c-.096.342-.232.584-.413.727s-.423.214-.727.214c-.285 0-.708-.047-1.27-.143a9.81 9.81 0 0 0-1.638-.142c-.78 0-1.473.114-2.08.342a5.272 5.272 0 0 0-1.64.983c-.484.427-.91.945-1.282 1.553-.37.608-.718 1.302-1.04 2.08V86.28h-7.038zM250.113 95.828v-38.79h4.304c.912 0 1.51.43 1.796 1.284l.57 2.708c1.178-1.35 2.53-2.44 4.06-3.277s3.32-1.254 5.373-1.254c1.597 0 3.055.332 4.375.997 1.32.666 2.462 1.63 3.42 2.893s1.7 2.82 2.225 4.674c.52 1.852.783 3.976.783 6.37 0 2.186-.295 4.21-.884 6.07-.59 1.862-1.43 3.478-2.52 4.846-1.094 1.367-2.414 2.437-3.963 3.206s-3.28 1.154-5.2 1.154c-1.653 0-3.055-.252-4.204-.756-1.15-.503-2.18-1.2-3.092-2.095v11.97h-7.04zm13.68-33.772c-1.464 0-2.713.31-3.748.926-1.036.618-2 1.487-2.893 2.608V78.7c.798.988 1.667 1.677 2.607 2.066s1.96.584 3.063.584c1.063 0 2.023-.2 2.878-.6.856-.397 1.583-1.006 2.182-1.822.6-.817 1.06-1.848 1.382-3.093.323-1.244.484-2.712.484-4.403 0-1.71-.138-3.158-.413-4.346s-.67-2.152-1.183-2.893c-.513-.74-1.136-1.283-1.867-1.625-.73-.342-1.56-.512-2.492-.512zM288.19 43.93v42.35h-7.04V43.93h7.04zM312.926 86.28c-.665 0-1.18-.1-1.54-.298-.36-.2-.645-.604-.854-1.212l-.627-2.08c-.74.665-1.463 1.25-2.166 1.753-.704.503-1.436.926-2.195 1.268-.76.344-1.572.6-2.437.77-.865.172-1.82.258-2.864.258-1.235 0-2.375-.167-3.42-.5s-1.948-.83-2.708-1.495-1.35-1.49-1.767-2.48c-.42-.986-.628-2.137-.628-3.447 0-1.102.29-2.19.87-3.264.578-1.073 1.543-2.042 2.892-2.907 1.35-.864 3.145-1.58 5.387-2.15s5.036-.894 8.38-.97v-1.71c0-1.957-.418-3.406-1.254-4.347-.836-.94-2.043-1.41-3.62-1.41-1.14 0-2.085.132-2.835.398-.75.267-1.41.566-1.98.898a179.2 179.2 0 0 1-1.553.898c-.466.266-.983.4-1.553.4-.495 0-.912-.13-1.255-.386a3.22 3.22 0 0 1-.827-.898l-1.254-2.25c3.362-3.08 7.41-4.618 12.14-4.618 1.71 0 3.24.28 4.59.84 1.348.562 2.488 1.34 3.42 2.338.93.998 1.638 2.19 2.122 3.577s.728 2.907.728 4.56v18.468h-3.194zm-10.516-4.388c1.443 0 2.693-.262 3.748-.784s2.085-1.315 3.092-2.38v-4.93c-2.052.095-3.767.27-5.145.526-1.377.257-2.484.585-3.32.983-.836.4-1.435.865-1.795 1.396a3.032 3.032 0 0 0-.542 1.738c0 1.236.366 2.12 1.098 2.652.73.533 1.685.8 2.864.8zM330.653 86.737c-2.546 0-4.498-.717-5.856-2.15s-2.038-3.417-2.038-5.943V62.312h-2.993c-.38 0-.703-.124-.97-.37-.266-.248-.398-.618-.398-1.113v-2.794l4.702-.77 1.48-7.98c.096-.38.276-.674.543-.883.266-.21.607-.313 1.025-.313h3.648v9.206h7.81v5.016h-7.81v15.846c0 .91.223 1.624.67 2.137.446.514 1.06.77 1.838.77.437 0 .803-.052 1.098-.156.294-.105.55-.215.77-.33.218-.113.413-.222.584-.326s.342-.157.513-.157c.21 0 .38.053.514.157s.275.26.428.47l2.11 3.42a10.657 10.657 0 0 1-3.535 1.938c-1.33.436-2.708.655-4.134.655zM353.14 56.584c1.843 0 3.543.294 5.102.883 1.558.59 2.897 1.45 4.02 2.58 1.12 1.13 1.998 2.517 2.635 4.16.637 1.644.955 3.52.955 5.63 0 1.063-.114 1.78-.342 2.15-.23.37-.666.556-1.312.556H346.1c.114 1.5.38 2.798.8 3.89.416 1.094.968 1.996 1.65 2.708a6.48 6.48 0 0 0 2.438 1.598c.94.352 1.98.527 3.12.527s2.124-.133 2.95-.4a13.87 13.87 0 0 0 2.167-.883 49.468 49.468 0 0 0 1.624-.883c.465-.268.916-.4 1.353-.4.59 0 1.026.22 1.312.655l2.023 2.565a11.72 11.72 0 0 1-2.622 2.294 14.69 14.69 0 0 1-3.035 1.482c-1.054.37-2.127.63-3.22.783s-2.15.228-3.178.228c-2.033 0-3.924-.338-5.672-1.012a12.697 12.697 0 0 1-4.56-2.993c-1.292-1.32-2.31-2.954-3.05-4.9-.74-1.948-1.11-4.205-1.11-6.77 0-1.995.322-3.87.968-5.63.646-1.756 1.572-3.286 2.78-4.587 1.205-1.3 2.678-2.332 4.416-3.092 1.74-.76 3.7-1.14 5.886-1.14zm.143 5.044c-2.052 0-3.658.58-4.816 1.738-1.16 1.16-1.9 2.803-2.224 4.93h13.28c0-.91-.127-1.77-.384-2.58a6.158 6.158 0 0 0-1.155-2.122c-.513-.608-1.164-1.087-1.952-1.44-.79-.35-1.705-.526-2.75-.526z"/></g><path fill="#666" d="M0 0v95.828h95.828V0H0zm10.648 4.326a5.823 5.823 0 1 1 0 11.646 5.823 5.823 0 0 1 0-11.646zm0 86.678a5.823 5.823 0 1 1 0-11.646 5.823 5.823 0 0 1 0 11.646zm37.266-2.163c-22.603 0-40.927-18.323-40.927-40.926S25.31 6.987 47.914 6.987 88.84 25.31 88.84 47.914c0 22.603-18.323 40.927-40.926 40.927zm37.267 2.164a5.823 5.823 0 1 1 0-11.646 5.823 5.823 0 0 1 0 11.646zm0-74.533a5.823 5.823 0 1 1 0-11.645 5.823 5.823 0 0 1 0 11.646z"/><circle fill="#666" cx="47.914" cy="47.352" r="6.609"/><path fill="#666" d="M81.116 40.766c-2.287-1.908-5.52-3.614-9.354-4.933a48.748 48.748 0 0 0-2.383-.75c.134-.55.258-1.094.367-1.626 1.836-8.914.533-15.86-3.402-18.13-.962-.555-2.1-.836-3.38-.836-3.693 0-8.37 2.303-13.174 6.482-.613.534-1.228 1.1-1.842 1.69-.41-.392-.82-.77-1.226-1.132-4.987-4.428-10.063-6.967-13.926-6.967-1.323 0-2.494.29-3.48.86-1.932 1.12-3.244 3.4-3.794 6.595-.506 2.935-.362 6.59.417 10.566.156.802.34 1.62.546 2.45-.946.27-1.86.557-2.74.864-8.04 2.803-12.84 7.085-12.84 11.455 0 2.282 1.337 4.634 3.868 6.8 2.38 2.04 5.723 3.83 9.666 5.178.644.22 1.312.43 2 .627-.222.898-.416 1.78-.58 2.642-1.588 8.364-.277 14.662 3.508 16.845.997.575 2.186.866 3.533.866 3.843 0 8.8-2.407 13.605-6.606a42.268 42.268 0 0 0 1.544-1.422c.666.642 1.334 1.25 2 1.824 4.67 4.02 9.247 6.233 12.887 6.233 1.312 0 2.476-.29 3.46-.86 1.975-1.144 3.34-3.48 3.948-6.755.572-3.082.446-6.87-.363-10.96a42.37 42.37 0 0 0-.444-1.978c.47-.138.928-.28 1.376-.43 8.64-2.862 14.006-7.462 14.006-12.005.002-2.23-1.314-4.51-3.804-6.586zM62.964 17.652c.72 0 1.326.14 1.8.413 2.12 1.222 3.615 6.36 1.886 14.753-.1.482-.21.973-.333 1.47-3.078-.71-6.414-1.236-9.9-1.562-2.037-2.9-4.147-5.535-6.254-7.807a46.393 46.393 0 0 1 1.704-1.563c4.105-3.572 8.253-5.705 11.097-5.705zm-4.72 35.722a105.148 105.148 0 0 1-3.547 5.728 94.81 94.81 0 0 1-6.783.24c-2.315 0-4.55-.07-6.694-.21a89.432 89.432 0 0 1-6.782-11.7 88.76 88.76 0 0 1 6.732-11.68 88.85 88.85 0 0 1 13.495-.003 95.39 95.39 0 0 1 3.568 5.694 104.5 104.5 0 0 1 3.192 5.934 95.383 95.383 0 0 1-3.182 5.996zm4.888-2.35a66.348 66.348 0 0 1 2.486 6.518c-2.144.49-4.462.884-6.906 1.177a111.212 111.212 0 0 0 2.27-3.766c.755-1.31 1.472-2.622 2.15-3.93zM48.042 67.75a71.974 71.974 0 0 1-4.45-5.327c1.41.056 2.85.083 4.322.083 1.51 0 3.005-.034 4.476-.1a66.437 66.437 0 0 1-4.348 5.345zm-10.857-8.966a66.147 66.147 0 0 1-6.82-1.098 71.82 71.82 0 0 1 2.4-6.532 92.588 92.588 0 0 0 2.095 3.823c.75 1.3 1.528 2.57 2.325 3.807zm-4.43-15.072a69.466 69.466 0 0 1-2.35-6.4 72.18 72.18 0 0 1 6.706-1.15 93.008 93.008 0 0 0-4.355 7.55zM47.95 27.178a67.693 67.693 0 0 1 4.355 5.26 93.68 93.68 0 0 0-8.748-.004 69.02 69.02 0 0 1 4.392-5.256zM60.97 39.86a99.2 99.2 0 0 0-2.254-3.704c2.357.298 4.62.694 6.75 1.18a67.945 67.945 0 0 1-2.368 6.372 110.773 110.773 0 0 0-2.13-3.848zM29.04 31.977c-.705-3.604-.845-6.862-.404-9.422.38-2.21 1.184-3.77 2.26-4.395.5-.29 1.138-.435 1.897-.435 3.054 0 7.475 2.307 11.826 6.17.37.327.74.67 1.11 1.025-2.153 2.313-4.276 4.942-6.3 7.8-3.482.32-6.81.837-9.882 1.535a49.8 49.8 0 0 1-.506-2.278zm-3.58 24.36c-7.828-2.675-11.394-6.533-11.394-8.985 0-2.355 3.315-5.888 10.72-8.47a44.56 44.56 0 0 1 2.548-.8c.928 3.018 2.143 6.166 3.605 9.343-1.486 3.23-2.717 6.428-3.653 9.485a40.07 40.07 0 0 1-1.824-.572zm7.44 20.81c-.785 0-1.443-.148-1.953-.442-2.04-1.177-3.445-5.813-1.982-13.517.15-.797.332-1.616.54-2.455 3.016.668 6.362 1.153 9.972 1.444 2.045 2.88 4.186 5.527 6.355 7.85-.47.454-.94.887-1.408 1.296-4.175 3.647-8.482 5.825-11.524 5.825zm33.98-14.768c1.606 8.115.054 13.134-2.068 14.363-.497.288-1.128.433-1.876.433-2.84 0-6.786-1.993-10.824-5.467a44.196 44.196 0 0 1-1.86-1.698c2.078-2.27 4.16-4.914 6.208-7.88 3.583-.32 6.965-.84 10.02-1.545.15.61.284 1.207.4 1.792zm3.04-6.025a39.52 39.52 0 0 1-1.24.388c-.932-2.952-2.19-6.1-3.75-9.382 1.476-3.184 2.69-6.298 3.6-9.233.755.22 1.49.45 2.2.695 3.474 1.195 6.363 2.707 8.358 4.37 1.722 1.438 2.67 2.915 2.67 4.16 0 2.447-3.704 6.308-11.838 9.003z"/></svg>