<svg xmlns="http://www.w3.org/2000/svg" width="24" height="24" viewBox="0 0 24 24"><g stroke-linejoin="round" stroke-miterlimit="10" fill="none"><path d="M23.364 6.863l-16.262 16.264-6.364-6.363 7.071-7.071.354.354c.586.586 1.535.586 2.121 0s.586-1.536 0-2.122l-.354-.354 7.07-7.071 6.364 6.363zM4.98 18.178l3.535-3.535 2.121 2.121-3.535 3.535zM9.93 13.228l3.535-3.535 2.121 2.121-3.535 3.535zM14.879 8.278l3.536-3.536 2.121 2.121-3.536 3.536zM2.168 15.366l1.751 1.751M3.582 13.951l1.751 1.752M4.996 12.537l1.752 1.751M6.411 11.123l1.751 1.751M11.344 6.156l1.767 1.768M12.758 4.742l1.767 1.768M14.172 3.328l1.767 1.768M15.586 1.914l1.768 1.768"/></g></svg>