<svg xmlns="http://www.w3.org/2000/svg" width="24" height="24" viewBox="0 0 24 24"><g stroke-linecap="round" stroke-linejoin="round" stroke-miterlimit="10" fill="none"><path d="M14.5 12.5h1c1.657 0 3 1.343 3 3s-1.343 3-3 3h-1"/><path d="M14.5 21.5c0 1.104-.896 2-2 2h-9c-1.104 0-2-.896-2-2v-11h13v11zM14.381.564c1.032 1.574-.497 2.437-.853 3.282-.377.895-.01 1.752.885 2.129 2.9 1.222 3.764-4.493-.032-5.411zM11.5 10.5l2.609-4.687M15.141 6.156l-1.641 4.344"/><path d="M5.5 10.5h-3l-1.5-3-.5-3 2.5 1.5zM1 7.5l2-1.5"/><path d="M6.5.5h4v10h-4zM10.5 2.5h-2M10.5 4.5h-1M10.5 6.5h-2M10.5 8.5h-1"/></g></svg>