<svg xmlns="http://www.w3.org/2000/svg" width="24" height="24" viewBox="0 0 24 24"><g stroke-linejoin="round" stroke-miterlimit="10" fill="none"><circle stroke-linecap="round" cx="12" cy="12" r="11.5"/><path d="M12.004 4.48c-4.418 0-8 3.581-8 8 0 3.534 2.291 6.533 5.471 7.592.4.071.527-.164.527-.376v-1.39c-2.226.483-2.687-1.053-2.687-1.053-.364-.924-.888-1.172-.888-1.172-.727-.496.055-.486.055-.486.803.057 1.226.824 1.226.824.714 1.223 1.872.869 2.327.666.073-.518.28-.869.509-1.07-1.776-.201-3.644-.888-3.644-3.953 0-.874.312-1.587.822-2.147-.081-.2-.357-1.016.08-2.116 0 0 .672-.217 2.2.82.638-.177 1.322-.268 2.002-.27.68.002 1.364.093 2.004.27 1.527-1.036 2.198-.82 2.198-.82.437 1.101.161 1.916.079 2.115.512.561.822 1.273.822 2.147 0 3.073-1.87 3.75-3.652 3.948.287.247.547.727.547 1.473v2.217c0 .213.13.449.535.371 3.178-1.06 5.467-4.056 5.467-7.59 0-4.418-3.582-8-8-8z"/></g></svg>