<svg xmlns="http://www.w3.org/2000/svg" width="24" height="24" viewBox="0 0 24 24"><g stroke-linejoin="round" stroke-miterlimit="10" fill="none"><path d="M3.561 22.56c-.586.587-1.537.587-2.121 0-.586-.585-.586-1.534 0-2.12l6.57-6.572 2.121 2.121-6.57 6.571z"/><path stroke-linecap="round" d="M6.951 12.807l4.24 4.242"/><path d="M19.75 4.25l-10.687 10.688"/><path d="M20.934 5.433l-2.475-2.473 3.541-2.46 1.5 1.5zM11.89 9.813l-3.745-3.745c.616-1.456.334-3.203-.854-4.39-1.187-1.185-2.857-1.468-4.314-.853l1.869 2.109v2h-2l-2.065-1.914c-.616 1.458-.333 3.166.854 4.352 1.186 1.188 2.933 1.451 4.388.835l3.746 3.738M11.89 14.055l3.747 3.748c-.616 1.456-.334 3.202.854 4.389 1.187 1.186 2.933 1.468 4.39.853l-2.034-2.11v-2h2l2.153 1.988c.616-1.456.333-3.202-.854-4.388-1.187-1.188-2.933-1.471-4.389-.854l-3.745-3.747"/></g></svg>