<?xml version="1.0" encoding="UTF-8" standalone="no"?>
<svg viewBox="0 0 324 85" version="1.1" xmlns="http://www.w3.org/2000/svg" xmlns:xlink="http://www.w3.org/1999/xlink">
    <title>react-boilerplate-logo</title>
    <defs></defs>
    <g>
      <path d="M100.236393,34.5445312 L100.236393,8.65494792 L103.896,8.65494792 C104.535148,8.65494792 104.981311,8.76739583 105.232721,8.99494792 C105.485902,9.22161458 105.654098,9.62979167 105.737311,10.2168229 L106.09141,13.1448958 C106.914689,11.5971875 107.881377,10.3823958 108.991475,9.49875 C110.101574,8.61510417 111.413508,8.17239583 112.927279,8.17239583 C114.122361,8.17239583 115.080197,8.43359375 115.804328,8.95510417 L115.39977,13.6230208 C115.313902,13.9258333 115.193508,14.1401042 115.033279,14.2667187 C114.873934,14.3933333 114.65882,14.4561979 114.389705,14.4561979 C114.136525,14.4561979 113.76118,14.4136979 113.265443,14.3286979 C112.78591,14.2458834 112.300266,14.2035294 111.813639,14.2020833 C111.124918,14.2020833 110.510557,14.3030208 109.972328,14.5048958 C109.439399,14.7040855 108.947374,14.9990572 108.520525,15.3752604 C108.092951,15.7533333 107.714951,16.2119792 107.38741,16.7503125 C107.059869,17.2904167 106.750033,17.903125 106.466754,18.5919792 L106.466754,34.5409896 L100.234623,34.5409896 L100.236393,34.5445312 Z M128.090656,8.2503125 C129.722164,8.2503125 131.227082,8.510625 132.60718,9.03213542 C133.986393,9.55453125 135.171738,10.3159896 136.165869,11.3165104 C137.157344,12.3170313 137.93459,13.5459896 138.498492,14.9998438 C139.062393,16.4563542 139.343902,18.1165104 139.343902,19.9847396 C139.343902,20.9268229 139.242984,21.5607813 139.041148,21.8883854 C138.837541,22.2177604 138.451574,22.3815625 137.879705,22.3815625 L121.858525,22.3815625 C121.959443,23.7096875 122.194918,24.8589583 122.566721,25.8258333 C122.934984,26.7935937 123.423639,27.5922396 124.027377,28.2235417 C124.630195,28.852357 125.368264,29.3356159 126.185607,29.6366667 C127.017738,29.9492187 127.938393,30.1041667 128.947574,30.1041667 C129.956754,30.1041667 130.827836,29.9864062 131.559049,29.75 C132.291148,29.5153646 132.93118,29.2541667 133.477377,28.9690625 C133.961437,28.7171662 134.440734,28.4562176 134.915016,28.1863542 C135.327541,27.9508333 135.726787,27.8321875 136.113639,27.8321875 C136.635934,27.8321875 137.021902,28.0269792 137.275082,28.4139062 L139.065934,30.6841146 C138.397722,31.4730418 137.615375,32.1576523 136.74482,32.7152604 C135.903138,33.2548025 135.001866,33.6951263 134.058984,34.0274479 C133.134417,34.353588 132.179472,34.5861411 131.208492,34.7216146 C130.240033,34.8561979 129.303443,34.9234896 128.39341,34.9234896 C126.59459,34.9234896 124.92059,34.6242187 123.374066,34.0274479 C121.852325,33.4476588 120.474903,32.5437024 119.337344,31.3782812 C118.192721,30.2095312 117.292426,28.7627604 116.637344,27.0379687 C115.982262,25.3131771 115.652951,23.3156771 115.652951,21.0436979 C115.652951,19.2781771 115.938885,17.6171354 116.511639,16.0605729 C117.082623,14.5048958 117.901475,13.1502083 118.970852,11.9982812 C120.038459,10.8472396 121.343311,9.93348958 122.880984,9.26057292 C124.419541,8.58765625 126.156393,8.25119792 128.090656,8.25119792 L128.090656,8.2503125 Z M128.216361,12.7172396 C126.399836,12.7172396 124.978131,13.2307813 123.953016,14.2560938 C122.927902,15.2831771 122.271049,16.7388021 121.985115,18.6229688 L133.74118,18.6229688 C133.74118,17.8154688 133.628754,17.0557813 133.401246,16.3385938 C133.188179,15.6506839 132.840971,15.0118065 132.379672,14.4588542 C131.924656,13.91875 131.348361,13.4955208 130.650787,13.1838542 C129.951443,12.8721875 129.141443,12.7172396 128.216361,12.7172396 L128.216361,12.7172396 Z M159.677115,34.5445312 C159.088426,34.5445312 158.632525,34.4559896 158.313836,34.2789062 C157.995148,34.1035937 157.742852,33.7458854 157.557836,33.2075521 L157.002787,31.3658854 C156.347705,31.9546875 155.707672,32.4726562 155.085344,32.9171354 C154.462131,33.3633854 153.814131,33.7370312 153.14223,34.0416146 C152.469443,34.3426562 151.750623,34.5702083 150.984885,34.7233854 C150.219148,34.8739062 149.373738,34.9491667 148.449541,34.9491667 C147.356262,34.9491667 146.347082,34.8013021 145.422,34.5064583 C144.496918,34.2142708 143.697541,33.7715625 143.024754,33.1827604 C142.342106,32.5802804 141.806937,31.8290213 141.460525,30.9869271 C141.088721,30.1130208 140.90459,29.0956771 140.90459,27.9348958 C140.90459,26.9591667 141.161311,25.9958333 141.674754,25.0448958 C142.186426,24.0948438 143.040689,23.236875 144.234885,22.4709896 C145.429967,21.7051042 147.018984,21.069375 149.003705,20.5646875 C150.988426,20.06 153.461803,19.7740104 156.422066,19.7058333 L156.422066,18.1917708 C156.422066,16.4598958 156.052033,15.1769271 155.311967,14.34375 C154.571902,13.5114583 153.50341,13.0953125 152.107377,13.0953125 C151.098197,13.0953125 150.261639,13.2130729 149.597705,13.4494792 C148.93377,13.685 148.349508,13.9497396 147.844918,14.2436979 C147.340328,14.5385417 146.882656,14.8032813 146.470131,15.0388021 C146.057607,15.2743229 145.599934,15.3929688 145.095344,15.3929688 C144.657148,15.3929688 144.288,15.2778646 143.984361,15.0511979 C143.6917,14.8347584 143.443191,14.5642612 143.252262,14.2543229 L142.142164,12.2621354 C145.118361,9.53682292 148.701836,8.17416667 152.889049,8.17416667 C154.40282,8.17416667 155.757246,8.42208333 156.952328,8.91791667 C158.145639,9.41552083 159.15482,10.104375 159.979869,10.9880208 C160.803148,11.8734375 161.429902,12.9270833 161.858361,14.1560417 C162.28682,15.3841146 162.50282,16.7299479 162.50282,18.1935417 L162.50282,34.5454167 L159.675344,34.5454167 L159.677115,34.5445312 Z M150.367869,30.6575521 C151.645279,30.6575521 152.751836,30.4273437 153.68577,29.9642708 C154.619705,29.5020833 155.531508,28.7999479 156.422951,27.8569792 L156.422951,23.491875 C154.606426,23.5759896 153.08823,23.7309375 151.868361,23.9584896 C150.649377,24.1842708 149.66941,24.4746875 148.929344,24.8279687 C148.189279,25.1821354 147.659016,25.5938542 147.340328,26.0640104 C147.026374,26.5162637 146.858886,27.0540578 146.860525,27.6046354 C146.860525,28.6972396 147.184525,29.4799479 147.832525,29.9509896 C148.478754,30.4220312 149.324164,30.6575521 150.367869,30.6575521 L150.367869,30.6575521 Z M185.637836,14.1294792 C185.451934,14.3658854 185.27223,14.5500521 185.09518,14.6846354 C184.918131,14.8192187 184.66141,14.8865104 184.325016,14.8865104 C184.006328,14.8865104 183.694721,14.7891146 183.391082,14.5960937 C183.088328,14.4030729 182.727148,14.184375 182.30577,13.9408854 C181.828575,13.6721488 181.32559,13.4520502 180.804393,13.2839062 C180.224557,13.0908854 179.504852,12.9934896 178.647049,12.9934896 C177.55377,12.9934896 176.595049,13.1918229 175.77,13.5867187 C174.954251,13.9749933 174.247866,14.5601094 173.714459,15.289375 C173.168262,16.0295833 172.760164,16.925625 172.491049,17.9766146 C172.221049,19.0284896 172.087377,20.2184896 172.087377,21.5475 C172.087377,22.92875 172.234328,24.1550521 172.53,25.2308333 C172.822131,26.3083854 173.247049,27.2123958 173.802098,27.9446354 C174.330521,28.6549149 175.023039,29.2266565 175.820459,29.6109896 C176.610984,29.9899479 177.502426,30.1776562 178.493902,30.1776562 C179.485377,30.1776562 180.28918,30.0572396 180.904426,29.8128646 C181.517902,29.569375 182.034885,29.2993229 182.456262,29.0053646 C182.829583,28.7464351 183.195626,28.4771642 183.553967,28.1978646 C183.850381,27.9593346 184.219892,27.8301997 184.600328,27.8321875 C185.104918,27.8321875 185.483803,28.0269792 185.735213,28.4130208 L187.526066,30.6832292 C186.872648,31.4583492 186.117484,32.141582 185.281082,32.714375 C184.498829,33.2486298 183.65649,33.6890485 182.77141,34.0265625 C181.903869,34.3541667 181.014197,34.5861458 180.097967,34.7207292 C179.191114,34.8546155 178.275696,34.9220866 177.359016,34.9226042 C175.762033,34.9226042 174.257115,34.6233333 172.844262,34.0265625 C171.434668,33.4324419 170.169578,32.5415743 169.135082,31.4145833 C168.076328,30.270625 167.238885,28.8698958 166.62541,27.2132812 C166.011049,25.5575521 165.704754,23.6680729 165.704754,21.5483854 C165.704754,19.6482812 165.97741,17.8854167 166.524492,16.2624479 C167.071574,14.6385937 167.874492,13.2343229 168.935016,12.0478646 C169.995541,10.8614062 171.307475,9.93171875 172.87082,9.25880208 C174.434164,8.58588542 176.234754,8.24942708 178.269049,8.24942708 C180.203311,8.24942708 181.898557,8.56197917 183.353016,9.18354167 C184.820664,9.81452471 186.153039,10.7223859 187.277311,11.8575 L185.639607,14.1294792 L185.637836,14.1294792 Z M198.781967,34.9473958 C196.527246,34.9473958 194.798361,34.3134375 193.597082,33.04375 C192.394918,31.7731771 191.792951,30.0191667 191.792951,27.7817187 L191.792951,13.3228646 L189.144295,13.3228646 C188.807902,13.3228646 188.521967,13.2130729 188.285607,12.9952604 C188.050131,12.7756771 187.933279,12.4480729 187.933279,12.0097917 L187.933279,9.5359375 L192.09659,8.85416667 L193.406754,1.78854167 C193.491738,1.45208333 193.651082,1.19265625 193.887443,1.00760417 C194.123803,0.821666667 194.425672,0.73046875 194.795705,0.73046875 L198.025082,0.73046875 L198.025082,8.88161458 L204.938852,8.88161458 L204.938852,13.32375 L198.025082,13.32375 L198.025082,27.3540625 C198.025082,28.1615625 198.222492,28.7928646 198.618197,29.2470833 C199.013016,29.7021875 199.556557,29.9288542 200.245279,29.9288542 C200.632131,29.9288542 200.956131,29.8845833 201.217279,29.7907292 C201.477541,29.6986458 201.704164,29.60125 201.898918,29.5003125 C202.091902,29.399375 202.264525,29.3028646 202.415902,29.2098958 C202.551444,29.1222974 202.70869,29.0741641 202.870033,29.0708854 C203.055934,29.0708854 203.206426,29.1186979 203.324164,29.2107812 C203.441902,29.3028646 203.567607,29.4427604 203.703049,29.6269271 L205.570918,32.6550521 C204.646453,33.4209547 203.584338,34.0033524 202.441574,34.3709896 C201.264197,34.7570312 200.044328,34.9509375 198.781967,34.9509375 L198.781967,34.9473958 Z M100.236393,76.39375 L100.236393,38.8963542 L106.468525,38.8963542 L106.468525,53.709375 C107.513115,52.5981771 108.667475,51.7189583 109.938689,51.0708333 C111.208131,50.4244792 112.659049,50.1004167 114.290557,50.1004167 C115.786623,50.1004167 117.137508,50.3952604 118.339672,50.9831771 C119.548785,51.5780803 120.602654,52.4466215 121.417672,53.5198958 C122.267508,54.6222396 122.919049,55.9547917 123.374066,57.5202083 C123.827311,59.0847396 124.055705,60.8422917 124.055705,62.7946354 C124.055705,64.8975 123.793672,66.8055729 123.272262,68.5232813 C122.749967,70.2392188 122.006361,71.7072396 121.041443,72.9264583 C120.072984,74.1465625 118.908,75.0921875 117.546492,75.7651042 C116.184984,76.4380208 114.669443,76.7744792 113.00518,76.7744792 C112.197836,76.7744792 111.461311,76.6947917 110.797377,76.5354167 C110.166633,76.3875024 109.556524,76.1623847 108.980852,75.8651563 C108.434647,75.5803757 107.926124,75.2285054 107.467082,74.8177083 C106.992,74.3926852 106.549326,73.9327597 106.142754,73.4417708 L105.864787,75.1833854 C105.764754,75.6207813 105.590361,75.9324479 105.347803,76.1175 C105.105246,76.3025521 104.772393,76.3946354 104.351016,76.3946354 L100.237279,76.3946354 L100.236393,76.39375 Z M112.145607,54.9454167 C110.950525,54.9454167 109.90859,55.2198958 109.017148,55.7653125 C108.12482,56.3125 107.275869,57.0819271 106.467639,58.0744792 L106.467639,69.6822917 C107.175836,70.5570833 107.94423,71.1671354 108.776361,71.5115625 C109.608492,71.8559896 110.488426,72.0286458 111.414393,72.0286458 C112.37223,72.0286458 113.234459,71.856875 113.999311,71.5115625 C114.764164,71.16625 115.415705,70.6279167 115.955705,69.8965625 C116.495705,69.1652083 116.904689,68.2319792 117.190623,67.0959896 C117.476557,65.9591146 117.619082,64.6008854 117.619082,63.0186458 C117.619082,60.1764583 117.148131,58.1196354 116.20623,56.8490625 C115.266098,55.579375 113.911672,54.9454167 112.145607,54.9454167 L112.145607,54.9454167 Z M139.065049,50.1004167 C140.982492,50.1004167 142.727311,50.4120833 144.300393,51.0336458 C145.87259,51.6560937 147.218164,52.5388542 148.337115,53.6836979 C149.456066,54.8285417 150.31741,56.2248437 150.922033,57.8734896 C151.529311,59.5221354 151.83118,61.3638021 151.83118,63.3984896 C151.83118,65.4526562 151.528426,67.3031771 150.922918,68.9518229 C150.31741,70.6004687 149.456066,72.0047396 148.338,73.1664062 C147.218164,74.3263021 145.873475,75.2179167 144.301279,75.8403646 C142.727311,76.4628125 140.981607,76.7744792 139.065049,76.7744792 C137.129902,76.7744792 135.373574,76.4619271 133.792525,75.8394792 C132.211475,75.2170312 130.86059,74.3254167 129.742525,73.1655208 C128.624459,72.0038542 127.759574,70.6004687 127.145213,68.9509375 C126.530852,67.3022917 126.224557,65.4517708 126.224557,63.399375 C126.224557,61.3629167 126.530852,59.52125 127.145213,57.8726042 C127.758689,56.2239583 128.623574,54.8267708 129.74341,53.6845833 C130.863246,52.5423958 132.213246,51.6569792 133.794295,51.0336458 C135.374459,50.4111979 137.131672,50.1004167 139.06682,50.1004167 L139.065049,50.1004167 Z M139.065049,71.9790625 C141.217967,71.9790625 142.81141,71.2547917 143.845377,69.8080208 C144.881115,68.36125 145.397213,66.2415625 145.397213,63.4489583 C145.397213,60.6563542 144.88023,58.5260417 143.845377,57.0651042 C142.81141,55.600625 141.216197,54.8692708 139.065049,54.8692708 C136.878492,54.8692708 135.258492,55.6059375 134.20859,57.0775 C133.156918,58.5508333 132.632852,60.6722917 132.632852,63.4498437 C132.632852,66.2265104 133.157803,68.3417708 134.20859,69.7965104 C135.259377,71.25125 136.879377,71.9790625 139.065049,71.9790625 L139.065049,71.9790625 Z M162.655082,42.9586458 C162.655082,43.4969792 162.545311,44.0034375 162.327541,44.4727083 C162.115329,44.9346501 161.820408,45.3538608 161.457344,45.7096354 C161.094393,46.0638021 160.669475,46.3444792 160.18259,46.5552083 C159.688393,46.7667263 159.155892,46.8740307 158.618361,46.8704167 C158.093178,46.8734519 157.57322,46.7660617 157.092197,46.5552083 C156.626684,46.3543409 156.203219,46.0674706 155.844,45.7096354 C155.488565,45.3526281 155.201708,44.9333641 154.997705,44.4727083 C154.78676,43.9960302 154.679635,43.4799157 154.683443,42.9586458 C154.683443,42.4034896 154.787902,41.8828646 154.997705,41.3941146 C155.197075,40.9240482 155.483971,40.4961749 155.843115,40.1332812 C156.197213,39.7791146 156.613279,39.4984375 157.091311,39.2877083 C157.572778,39.0773653 158.092977,38.9702891 158.618361,38.9733854 C159.17341,38.9733854 159.69482,39.0796354 160.183475,39.2885937 C160.670361,39.5010937 161.095279,39.7817708 161.45823,40.1350521 C161.818525,40.4892187 162.108,40.9089062 162.32577,41.3967708 C162.543541,41.8846354 162.655082,42.4061458 162.655082,42.9621875 L162.655082,42.9586458 Z M161.796393,50.5023958 L161.796393,76.39375 L155.540361,76.39375 L155.540361,50.5041667 L161.797279,50.5041667 L161.796393,50.5023958 Z M173.198361,38.8963542 L173.198361,76.39375 L166.968,76.39375 L166.968,38.8963542 L173.200131,38.8963542 L173.198361,38.8963542 Z M189.194754,50.1004167 C190.826262,50.1004167 192.33118,50.3607292 193.711279,50.8822396 C195.090492,51.4046354 196.275836,52.1660938 197.269967,53.1666146 C198.261443,54.1671354 199.038689,55.3952083 199.60259,56.8499479 C200.166492,58.3055729 200.448,59.9666146 200.448,61.8348438 C200.448,62.7760417 200.347082,63.4108854 200.145246,63.7384896 C199.941639,64.0660938 199.555672,64.2307813 198.983803,64.2307813 L182.962623,64.2307813 C183.063541,65.5589063 183.299016,66.7081771 183.67082,67.6750521 C184.039082,68.6436979 184.527738,69.4423437 185.131475,70.0727604 C185.73411,70.7022169 186.472194,71.1860908 187.289705,71.4876563 C188.121836,71.7993229 189.042492,71.9542708 190.051672,71.9542708 C191.060852,71.9542708 191.931934,71.8365104 192.663148,71.6001042 C193.323467,71.3940084 193.965193,71.1324702 194.581475,70.8182813 C195.065515,70.5666525 195.544812,70.3059994 196.019115,70.0364583 C196.430754,69.7991667 196.83,69.6822917 197.216852,69.6822917 C197.739148,69.6822917 198.125115,69.8770833 198.378295,70.2622396 L200.169148,72.5333333 C199.500935,73.3222605 198.718589,74.0068711 197.848033,74.5644792 C197.005878,75.1037372 196.104347,75.5440425 195.161311,75.8766667 C194.228262,76.2042708 193.278393,76.4344792 192.31082,76.5699479 C191.343246,76.7054167 190.407541,76.7718229 189.497508,76.7718229 C187.697803,76.7718229 186.023803,76.4725521 184.476393,75.8757812 C182.954766,75.2953533 181.577414,74.391141 180.439672,73.2257292 C179.295934,72.0569792 178.394754,70.6102083 177.739672,68.8871875 C177.08459,67.1623958 176.757049,65.1640104 176.757049,62.8929167 C176.757049,61.1265104 177.042098,59.4663542 177.613967,57.9080208 C178.185836,56.3532292 179.005574,54.9985417 180.074951,53.8466146 C181.141672,52.6955729 182.445639,51.7818229 183.984197,51.1089062 C185.524525,50.4359896 187.259607,50.0995312 189.194754,50.0995312 L189.194754,50.1004167 Z M189.321344,54.5664583 C187.50482,54.5664583 186.083115,55.08 185.058,56.1053125 C184.031115,57.1323958 183.376033,58.5871354 183.089213,60.4704167 L194.845279,60.4704167 C194.845279,59.6646875 194.732852,58.9032292 194.505344,58.1860417 C194.291904,57.4983749 193.944398,56.8598026 193.482885,56.3071875 C193.028754,55.7688542 192.452459,55.3447396 191.754885,55.0321875 C191.055541,54.7222917 190.245541,54.5664583 189.320459,54.5664583 L189.321344,54.5664583 Z M203.852656,76.39375 L203.852656,50.5041667 L207.511377,50.5041667 C208.15141,50.5041667 208.597574,50.6166146 208.849869,50.8441667 C209.102164,51.0717187 209.270361,51.4798958 209.354459,52.0678125 L209.706787,54.995 C210.530066,53.4472917 211.497639,52.2325 212.607738,51.3488542 C213.717836,50.4652083 215.02977,50.0233854 216.543541,50.0233854 C217.738623,50.0233854 218.696459,50.2845833 219.42059,50.8060937 L219.016033,55.4748958 C218.931049,55.7777083 218.810656,55.9919792 218.650426,56.1185937 C218.490197,56.2452083 218.275967,56.3080729 218.006852,56.3080729 C217.754557,56.3080729 217.380098,56.2664583 216.88259,56.1814583 C216.403615,56.0990393 215.918568,56.0569819 215.432557,56.0557292 C214.742066,56.0557292 214.12859,56.1566667 213.591246,56.3585417 C213.058317,56.5577313 212.566292,56.8527031 212.139443,57.2289062 C211.710984,57.6069792 211.333869,58.065625 211.004557,58.6039583 C210.677016,59.1422917 210.368951,59.7567708 210.083902,60.445625 L210.083902,76.39375 L203.853541,76.39375 L203.852656,76.39375 Z M221.411508,84.8477083 L221.411508,50.5023958 L225.221607,50.5023958 C226.028951,50.5023958 226.558328,50.883125 226.811508,51.6392708 L227.316098,54.0369792 C228.358918,52.8416667 229.55577,51.8765625 230.910197,51.1354688 C232.264623,50.394375 233.849213,50.0251563 235.666623,50.0251563 C237.080361,50.0251563 238.371049,50.3191146 239.539574,50.9079167 C240.708098,51.4976042 241.719049,52.3511458 242.567115,53.4694271 C243.41518,54.5877083 244.072033,55.9663021 244.536787,57.6078646 C244.997115,59.2476563 245.229934,61.1282813 245.229934,63.2479688 C245.229934,65.1834896 244.968787,66.9755729 244.447377,68.6224479 C243.925082,70.2710938 243.181475,71.7019271 242.216557,72.9131771 C241.248098,74.1235417 240.079574,75.0709375 238.708328,75.7518229 C237.337082,76.4327083 235.804721,76.7735938 234.105049,76.7735938 C232.641738,76.7735938 231.400623,76.5504688 230.383475,76.1042188 C229.365443,75.6588542 228.453639,75.0417188 227.646295,74.2492708 L227.646295,84.8477083 L221.414164,84.8477083 L221.411508,84.8477083 Z M233.521672,54.9454167 C232.225672,54.9454167 231.12,55.2198958 230.20377,55.7653125 C229.286656,56.3125 228.433279,57.0819271 227.642754,58.0744792 L227.642754,69.6822917 C228.34918,70.5570833 229.118459,71.1671354 229.95059,71.5115625 C230.782721,71.8559896 231.685672,72.0286458 232.662098,72.0286458 C233.603115,72.0286458 234.452951,71.8515625 235.209836,71.4973958 C235.967607,71.1458854 236.61118,70.6066667 237.141443,69.8841667 C237.67259,69.1607813 238.079803,68.2479167 238.364852,67.1455729 C238.650787,66.0441146 238.793311,64.7443229 238.793311,63.2470833 C238.793311,61.7330208 238.671148,60.4509375 238.427705,59.3990625 C238.184262,58.3471875 237.83459,57.4936458 237.380459,56.8375521 C236.926328,56.1823438 236.37482,55.7015625 235.727705,55.39875 C235.081475,55.0959375 234.346721,54.9454167 233.521672,54.9454167 L233.521672,54.9454167 Z M255.119016,38.8963542 L255.119016,76.39375 L248.886885,76.39375 L248.886885,38.8963542 L255.119016,38.8963542 L255.119016,38.8963542 Z M277.016459,76.39375 C276.42777,76.39375 275.971869,76.3052083 275.65318,76.1298958 C275.334492,75.9528125 275.082197,75.5951042 274.89718,75.0567708 L274.342131,73.2151042 C273.687049,73.8039063 273.047016,74.321875 272.424689,74.7672396 C271.801475,75.2126042 271.153475,75.5871354 270.481574,75.8899479 C269.808787,76.1945313 269.089967,76.4211979 268.32423,76.5717188 C267.558492,76.7240104 266.713082,76.8001563 265.788885,76.8001563 C264.695607,76.8001563 263.686426,76.6522917 262.761344,76.3574479 C261.836262,76.0626042 261.036885,75.6225521 260.364098,75.03375 C259.691311,74.4449479 259.169016,73.7144792 258.799869,72.8379167 C258.428066,71.9648958 258.243934,70.9457812 258.243934,69.7858854 C258.243934,68.8101562 258.500656,67.8468229 259.014098,66.8958854 C259.52577,65.9458333 260.380033,65.0878646 261.57423,64.3219792 C262.769311,63.5569792 264.358328,62.9230208 266.343049,62.4183333 C268.32777,61.9136458 270.801148,61.6267708 273.76141,61.5594792 L273.76141,60.0454167 C273.76141,58.3126562 273.391377,57.0296875 272.651311,56.1965104 C271.911246,55.3642187 270.842754,54.9480729 269.446721,54.9480729 C268.437541,54.9480729 267.600984,55.0649479 266.937049,55.3004687 C266.273115,55.536875 265.688852,55.8016146 265.184262,56.0955729 C264.727329,56.3629002 264.269061,56.6279383 263.809475,56.8906771 C263.396951,57.1261979 262.939279,57.2448437 262.434689,57.2448437 C261.996492,57.2448437 261.627344,57.1297396 261.323705,56.9030729 C261.031214,56.687155 260.782716,56.4172708 260.591607,56.1079687 L259.481508,54.1157812 C262.457705,51.3886979 266.04118,50.0269271 270.228393,50.0269271 C271.742164,50.0269271 273.09659,50.2748437 274.291672,50.7706771 C275.484984,51.2682812 276.494164,51.9571354 277.319213,52.8407812 C278.142492,53.7244271 278.769246,54.7798437 279.197705,56.0079167 C279.626164,57.2359896 279.842164,58.5818229 279.842164,60.0454167 L279.842164,76.3972917 L277.014689,76.3972917 L277.016459,76.39375 Z M267.707213,72.5085417 C268.984623,72.5085417 270.09118,72.2765625 271.025115,71.814375 C271.959049,71.3521875 272.870852,70.6500521 273.762295,69.7070833 L273.762295,65.3419792 C271.94577,65.4260937 270.427574,65.5810417 269.207705,65.8077083 C267.988721,66.0352604 267.008754,66.3256771 266.268689,66.6780729 C265.528623,67.0322396 264.998361,67.4439583 264.679672,67.9141146 C264.365908,68.3657961 264.198422,68.902969 264.199869,69.4529687 C264.199869,70.5473437 264.523869,71.3300521 265.171869,71.8010938 C265.818098,72.2730208 266.663508,72.5094271 267.707213,72.5094271 L267.707213,72.5085417 Z M292.709213,76.7983854 C290.455377,76.7983854 288.727377,76.1635417 287.525213,74.8947396 C286.323049,73.6259375 285.721082,71.8692708 285.721082,69.6327083 L285.721082,55.1720833 L283.071541,55.1720833 C282.735148,55.1720833 282.449213,55.0622917 282.212852,54.8444792 C281.977377,54.6248958 281.860525,54.2972917 281.860525,53.8590104 L281.860525,51.3851562 L286.022951,50.7033854 L287.333115,43.6377604 C287.418098,43.3013021 287.577443,43.0409896 287.813803,42.8559375 C288.049279,42.67 288.351148,42.5788021 288.72118,42.5788021 L291.950557,42.5788021 L291.950557,50.7299479 L298.864328,50.7299479 L298.864328,55.1711979 L291.950557,55.1711979 L291.950557,69.2015104 C291.950557,70.0072396 292.147967,70.6394271 292.543672,71.0936458 C292.938492,71.54875 293.482033,71.7754167 294.170754,71.7754167 C294.557607,71.7754167 294.881607,71.729375 295.142754,71.6372917 C295.403016,71.5443229 295.629639,71.4469271 295.824393,71.3451042 C296.017377,71.2450521 296.19,71.1485417 296.341377,71.0564583 C296.492754,70.964375 296.644131,70.9174479 296.795508,70.9174479 C296.98141,70.9174479 297.131902,70.964375 297.250525,71.0564583 C297.369148,71.1485417 297.493967,71.2866667 297.62941,71.4726042 L299.497279,74.5007292 C298.572814,75.2666318 297.510699,75.8490294 296.367934,76.2166667 C295.190557,76.6027083 293.970689,76.7966146 292.708328,76.7966146 L292.709213,76.7983854 Z M312.615738,50.1004167 C314.247246,50.1004167 315.752164,50.3607292 317.132262,50.8822396 C318.511475,51.4046354 319.69682,52.1660937 320.690951,53.1666146 C321.682426,54.1671354 322.459672,55.3952083 323.023574,56.8499479 C323.587475,58.3055729 323.868984,59.9666146 323.868984,61.8348437 C323.868984,62.7760417 323.768066,63.4108854 323.56623,63.7384896 C323.362623,64.0660937 322.976656,64.2307812 322.404787,64.2307812 L306.383607,64.2307812 C306.484525,65.5589062 306.72,66.7081771 307.091803,67.6750521 C307.460066,68.6436979 307.948721,69.4423437 308.552459,70.0727604 C309.155094,70.7022169 309.893177,71.1860908 310.710689,71.4876562 C311.54282,71.7993229 312.463475,71.9542708 313.472656,71.9542708 C314.481836,71.9542708 315.352918,71.8365104 316.084131,71.6001042 C316.744451,71.3940084 317.386176,71.1324702 318.002459,70.8182812 C318.486499,70.5666525 318.965796,70.3059994 319.440098,70.0364583 C319.851738,69.7991667 320.250984,69.6822917 320.637836,69.6822917 C321.160131,69.6822917 321.546098,69.8770833 321.799279,70.2622396 L323.590131,72.5333333 C322.921919,73.3222605 322.139572,74.0068711 321.269016,74.5644792 C320.426861,75.1037372 319.52533,75.5440425 318.582295,75.8766667 C317.649246,76.2042708 316.699377,76.4344792 315.731803,76.5699479 C314.76423,76.7054167 313.828525,76.7718229 312.918492,76.7718229 C311.118787,76.7718229 309.444787,76.4725521 307.897377,75.8757812 C306.375749,75.2953533 304.998398,74.391141 303.860656,73.2257292 C302.716918,72.0569792 301.815738,70.6102083 301.160656,68.8871875 C300.505574,67.1623958 300.178033,65.1640104 300.178033,62.8929167 C300.178033,61.1265104 300.463082,59.4663542 301.034951,57.9080208 C301.60682,56.3532292 302.426557,54.9985417 303.495934,53.8466146 C304.562656,52.6955729 305.866623,51.7818229 307.40518,51.1089062 C308.945508,50.4359896 310.68059,50.0995312 312.615738,50.0995312 L312.615738,50.1004167 Z M312.742328,54.5664583 C310.925803,54.5664583 309.504098,55.08 308.478984,56.1053125 C307.452098,57.1323958 306.797016,58.5871354 306.510197,60.4704167 L318.266262,60.4704167 C318.266262,59.6646875 318.153836,58.9032292 317.926328,58.1860417 C317.712888,57.4983749 317.365382,56.8598026 316.903869,56.3071875 C316.449738,55.7688542 315.873443,55.3447396 315.175869,55.0321875 C314.476525,54.7222917 313.666525,54.5664583 312.741443,54.5664583 L312.742328,54.5664583 Z"></path>
      <path d="M0,0 L0,84.8477083 L84.8313443,84.8477083 L84.8313443,0 L0,0 L0,0 Z M9.42609836,3.8303125 C12.2730085,3.8303125 14.5808852,6.13863439 14.5808852,8.98609375 C14.5808852,11.8335531 12.2730085,14.141875 9.42609836,14.141875 C6.57918818,14.141875 4.27131148,11.8335531 4.27131148,8.98609375 C4.27131148,6.13863439 6.57918818,3.8303125 9.42609836,3.8303125 L9.42609836,3.8303125 Z M9.42609836,80.5764583 C6.57918818,80.5764583 4.27131148,78.2681364 4.27131148,75.4206771 C4.27131148,72.5732177 6.57918818,70.2648958 9.42609836,70.2648958 C12.2730085,70.2648958 14.5808852,72.5732177 14.5808852,75.4206771 C14.5808852,78.2681364 12.2730085,80.5764583 9.42609836,80.5764583 L9.42609836,80.5764583 Z M42.4156721,78.6613021 C22.406459,78.6613021 6.18521311,62.4378125 6.18521311,42.4247396 C6.18521311,22.4116667 22.4055738,6.18640625 42.4156721,6.18640625 C62.4257705,6.18640625 78.6452459,22.4098958 78.6452459,42.4238542 C78.6452459,62.4369271 62.4248852,78.6613021 42.4156721,78.6613021 L42.4156721,78.6613021 Z M75.4061311,80.5773437 C72.559221,80.5773437 70.2513443,78.2690219 70.2513443,75.4215625 C70.2513443,72.5741031 72.559221,70.2657812 75.4061311,70.2657812 C78.2530413,70.2657812 80.560918,72.5741031 80.560918,75.4215625 C80.560918,78.2690219 78.2530413,80.5773437 75.4061311,80.5773437 L75.4061311,80.5773437 Z M75.4061311,14.5845833 C73.5485638,14.6089324 71.821588,13.6316906 70.8857056,12.0266152 C69.9498233,10.4215399 69.9498233,8.43694973 70.8857056,6.83187438 C71.821588,5.22679903 73.5485638,4.24955715 75.4061311,4.27390625 C78.2530413,4.27390629 80.560918,6.58222817 80.560918,9.4296875 C80.560918,12.2771468 78.2530413,14.5854687 75.4061311,14.5854688 L75.4061311,14.5845833 Z"></path>
      <ellipse cx="42.4156721" cy="41.92625" rx="5.85059016" ry="5.85171875"></ellipse>
      <path d="M71.8076066,36.0948958 C69.7830492,34.4055208 66.9210492,32.895 63.5270164,31.7271354 C62.8296233,31.4877929 62.1262121,31.266366 61.4174754,31.0630729 C61.5360984,30.5760938 61.6458689,30.0944271 61.7423607,29.6233854 C63.3676721,21.7307813 62.2141967,15.5806771 58.7307541,13.5707812 C57.8791475,13.079375 56.8717377,12.8305729 55.738623,12.8305729 C52.4694098,12.8305729 48.3291148,14.8696875 44.0763934,18.5698438 C43.5337377,19.0426563 42.9893115,19.5438021 42.4457705,20.0661979 C42.0828197,19.7191146 41.7198689,19.3844271 41.360459,19.0639063 C36.9457377,15.1432812 32.4522295,12.8952083 29.0325246,12.8952083 C27.8613443,12.8952083 26.8247213,13.1519792 25.9518689,13.6566667 C24.2415738,14.6483333 23.0801311,16.6670833 22.5932459,19.4959896 C22.1453115,22.0946875 22.2727869,25.3308854 22.9623934,28.8513021 C23.1004918,29.5614063 23.263377,30.2856771 23.4457377,31.0205729 C22.6082951,31.2596354 21.7991803,31.51375 21.0201639,31.7855729 C13.9027869,34.2673958 9.65360656,38.05875 9.65360656,41.9280208 C9.65360656,43.9485417 10.8371803,46.0310417 13.0777377,47.9488542 C15.184623,49.7551042 18.144,51.34 21.6345246,52.5335417 C22.204623,52.7283333 22.7959672,52.9142708 23.4050164,53.0886979 C23.2084918,53.8838021 23.0367541,54.6647396 22.8915738,55.4279688 C21.4858033,62.8335938 22.6463607,68.4099479 25.9970164,70.3428125 C26.8796066,70.8519271 27.9321639,71.1095833 29.1245902,71.1095833 C32.5265902,71.1095833 36.9147541,68.9783854 41.1683607,65.2605208 C41.6343175,64.8522148 42.0900646,64.4323979 42.5351803,64.0014583 C43.1247541,64.5698958 43.7160984,65.1082292 44.3056721,65.6164583 C48.4397705,69.1758333 52.491541,71.1352604 55.7138361,71.1352604 C56.8752787,71.1352604 57.9057049,70.8784896 58.7767869,70.3738021 C60.5251475,69.3608854 61.7335082,67.2925521 62.2717377,64.3928125 C62.7780984,61.6639583 62.6665574,58.31 61.9503934,54.6886458 C61.8333609,54.1018093 61.702307,53.5178575 61.5573443,52.9372917 C61.9734098,52.8151042 62.3788525,52.689375 62.7754426,52.5565625 C70.4239672,50.0225 75.1741967,45.9495833 75.1741967,41.9271354 C75.1759672,39.9526563 74.0109836,37.9339063 71.8067213,36.0957813 L71.8076066,36.0948958 Z M55.738623,15.629375 C56.376,15.629375 56.912459,15.7533333 57.3320656,15.9950521 C59.2087869,17.0770312 60.5322295,21.6263021 59.0016393,29.0576042 C58.9131148,29.484375 58.8157377,29.9191146 58.7068525,30.3591667 C55.9820656,29.7305208 53.0288852,29.2647917 49.942918,28.9761458 C48.1396721,26.4084375 46.2718033,24.0753646 44.4065902,22.0636979 C44.8978363,21.5899326 45.4008122,21.1284873 45.9150492,20.6797917 C49.5489836,17.5170833 53.2209836,15.6284896 55.738623,15.6284896 L55.738623,15.629375 Z M51.5602623,47.2582292 C50.5680394,48.9818977 49.5208463,50.6733213 48.4202951,52.3298958 C46.4219313,52.4723863 44.4191073,52.543265 42.4156721,52.5423958 C40.3663279,52.5423958 38.3878033,52.4804167 36.4898361,52.3564583 C34.2300514,49.0598384 32.223069,45.5968151 30.4860984,41.9970833 C32.2076017,38.4037407 34.1998383,34.9465494 36.4455738,31.6554167 C40.4218795,31.3516234 44.4155269,31.3507354 48.3919672,31.6527604 C49.5036902,33.2956581 50.5571961,34.977222 51.5505246,36.6943229 C52.5486478,38.4148416 53.4910392,40.1671064 54.3762295,41.9483854 C53.5005533,43.7509053 52.5610077,45.5216791 51.559377,47.2573438 L51.5602623,47.2582292 Z M55.8873443,45.1775 C56.7215931,47.0612853 57.4561819,48.9876625 58.0880656,50.9486458 C56.1900984,51.3825 54.1380984,51.7313542 51.9745574,51.9907813 C52.6662997,50.8926431 53.3362666,49.7809328 53.9840656,48.6563021 C54.6524262,47.4964063 55.2871475,46.3347396 55.8873443,45.1766146 L55.8873443,45.1775 Z M42.5289836,59.9869792 C41.1407922,58.4790564 39.8261491,56.9050216 38.5896393,55.2703646 C39.8378361,55.3199479 41.1125902,55.3438542 42.4156721,55.3438542 C43.7523934,55.3438542 45.0758361,55.31375 46.3780328,55.2553125 C45.1777211,56.8983561 43.8929774,58.4779972 42.5289836,59.9878646 L42.5289836,59.9869792 Z M32.9178689,52.0483333 C30.889854,51.829666 28.8746478,51.5051611 26.8804918,51.0761458 C27.4948369,49.1150943 28.2038657,47.1849819 29.005082,45.2926042 C29.5966317,46.4353221 30.2149998,47.5639509 30.8596721,48.6775521 C31.5236066,49.8285938 32.2123279,50.9530729 32.9178689,52.0483333 L32.9178689,52.0483333 Z M28.9962295,38.7033333 C28.2104735,36.8496394 27.5161949,34.9584734 26.9159016,33.0366667 C28.8776185,32.6041112 30.8586385,32.2643241 32.8523607,32.0184375 C31.4635381,34.185253 30.1770439,36.4160004 28.9971148,38.7033333 L28.9962295,38.7033333 Z M42.447541,24.0638542 C43.810144,25.5504226 45.0968628,27.1048305 46.3027869,28.7211458 C43.7228734,28.5993502 41.1386795,28.5981683 38.5586557,28.7176042 C39.7768523,27.1029513 41.0744497,25.5497893 42.4466557,24.0638542 L42.447541,24.0638542 Z M53.9734426,35.2927083 C53.3322967,34.1851042 52.667023,33.0916487 51.9780984,32.013125 C54.064623,32.2769792 56.0679344,32.6276042 57.9535082,33.0579167 C57.3493092,34.9723469 56.6496797,36.8553279 55.8572459,38.6997917 C55.2513272,37.5517279 54.6226787,36.4158096 53.9716721,35.2927083 L53.9734426,35.2927083 Z M25.707541,28.3129687 C25.0834426,25.1219271 24.9595082,22.2372396 25.3499016,19.9705729 C25.6862951,18.0138021 26.3980328,16.6325521 27.3505574,16.0791667 C27.7931803,15.8223958 28.3579672,15.6940104 29.0298689,15.6940104 C31.7334098,15.6940104 35.647082,17.7366667 39.4987869,21.1570312 C39.8263279,21.4465625 40.1538689,21.7502604 40.4814098,22.0645833 C38.5754754,24.1125521 36.6960984,26.4403125 34.9043607,28.9708333 C31.8219344,29.2541667 28.8758361,29.7119271 26.1563607,30.3299479 C25.9913187,29.6612132 25.8419662,28.9887022 25.7084262,28.3129687 L25.707541,28.3129687 Z M22.5383607,49.8817188 C15.6086557,47.5132292 12.4518689,44.0972917 12.4518689,41.92625 C12.4518689,39.8410938 15.386459,36.7129167 21.9417049,34.4267708 C22.6863292,34.1681723 23.4385358,33.9319551 24.1973115,33.7184375 C25.0188197,36.390625 26.0943934,39.1779167 27.388623,41.9908854 C26.0731475,44.8507813 24.9834098,47.6823438 24.1548197,50.3890625 C23.6126401,50.2331098 23.0742574,50.0642423 22.5401311,49.8826042 L22.5383607,49.8817188 Z M29.1245902,68.3072396 C28.4296721,68.3072396 27.8471803,68.1761979 27.3957049,67.9158854 C25.5898033,66.87375 24.3460328,62.7689583 25.6411475,55.9477083 C25.7739344,55.2420313 25.9350492,54.516875 26.1191803,53.7740104 C28.789082,54.3654688 31.7511148,54.7948958 34.9468525,55.0525521 C36.7571803,57.6025521 38.6524918,59.94625 40.5725902,62.0030729 C40.1565246,62.4050521 39.740459,62.7884375 39.3261639,63.1505729 C35.6302623,66.3796875 31.8175082,68.308125 29.1245902,68.308125 L29.1245902,68.3072396 Z M59.2052459,55.2314063 C60.6269508,62.4165625 59.2530492,66.8604688 57.3745574,67.9486458 C56.9345902,68.2036458 56.376,68.3320313 55.7138361,68.3320313 C53.1997377,68.3320313 49.7065574,66.5673958 46.1319344,63.4914583 C45.5689145,63.0060585 45.0198391,62.5047092 44.485377,61.9880208 C46.324918,59.978125 48.168,57.6370833 49.9809836,55.0109375 C53.1528197,54.7276042 56.1467213,54.2671875 58.8511475,53.6429688 C58.9839344,54.1830729 59.1025574,54.7116667 59.2052459,55.2296354 L59.2052459,55.2314063 Z M61.8963934,49.8967708 C61.5323987,50.0172934 61.1664476,50.1318227 60.7986885,50.2403125 C59.9736393,47.6265625 58.86,44.8392708 57.4790164,41.9333333 C58.7856393,39.1141667 59.8603279,36.3569792 60.6659016,33.7582813 C61.3342623,33.9530729 61.984918,34.1567188 62.6134426,34.3736458 C65.6887869,35.4317188 68.2462623,36.7704688 70.0123279,38.2429167 C71.5367213,39.5161458 72.3759344,40.8239063 72.3759344,41.92625 C72.3759344,44.0928646 69.0969836,47.5114583 61.8963934,49.8976563 L61.8963934,49.8967708 Z"></path>
    </g>
</svg>