<?xml version="1.0" encoding="UTF-8" standalone="no"?>
<svg width="1046px" height="1046px" viewBox="0 0 1046 1046" version="1.1" xmlns="http://www.w3.org/2000/svg" xmlns:xlink="http://www.w3.org/1999/xlink">
    <!-- Generator: Sketch 3.7 (28169) - http://www.bohemiancoding.com/sketch -->
    <title>guilloche</title>
    <desc>Created with Sketch.</desc>
    <defs></defs>
    <g id="Symbols" stroke="none" stroke-width="1" fill="none" fill-rule="evenodd" opacity="0.498017724">
        <g id="guilloche" transform="translate(-29.000000, -30.000000)" stroke="#DAE6F1" stroke-width="5">
            <g transform="translate(0.296023, 0.613010)">
                <path d="M379.670851,474.114918 C517.745966,204.067815 746.188109,14.9966461 812.688572,108.740646 C879.189035,202.484645 838.008714,413.996497 701.634827,667.734075 C565.26094,921.471652 415.667512,1043.44157 319.342789,1016.38698 C223.018066,989.332393 241.595737,744.162021 379.670851,474.114918 Z" id="horizontal" transform="translate(551.490978, 552.253990) scale(-1, 1) translate(-551.490978, -552.253990) "></path>
                <path d="M379.670851,474.114918 C517.745966,204.067815 746.188109,14.9966461 812.688572,108.740646 C879.189035,202.484645 838.008714,413.996497 701.634827,667.734075 C565.26094,921.471652 415.667512,1043.44157 319.342789,1016.38698 C223.018066,989.332393 241.595737,744.162021 379.670851,474.114918 Z" id="horizontal-copy" transform="translate(551.490978, 552.253990) scale(-1, 1) rotate(5.000000) translate(-551.490978, -552.253990) "></path>
                <path d="M379.670851,474.114918 C517.745966,204.067815 746.188109,14.9966461 812.688572,108.740646 C879.189035,202.484645 838.008714,413.996497 701.634827,667.734075 C565.26094,921.471652 415.667512,1043.44157 319.342789,1016.38698 C223.018066,989.332393 241.595737,744.162021 379.670851,474.114918 Z" id="horizontal-copy-2" transform="translate(551.490978, 552.253990) scale(-1, 1) rotate(10.000000) translate(-551.490978, -552.253990) "></path>
                <path d="M379.670851,474.114918 C517.745966,204.067815 746.188109,14.9966461 812.688572,108.740646 C879.189035,202.484645 838.008714,413.996497 701.634827,667.734075 C565.26094,921.471652 415.667512,1043.44157 319.342789,1016.38698 C223.018066,989.332393 241.595737,744.162021 379.670851,474.114918 Z" id="horizontal-copy-3" transform="translate(551.490978, 552.253990) scale(-1, 1) rotate(15.000000) translate(-551.490978, -552.253990) "></path>
                <path d="M379.670851,474.114918 C517.745966,204.067815 746.188109,14.9966461 812.688572,108.740646 C879.189035,202.484645 838.008714,413.996497 701.634827,667.734075 C565.26094,921.471652 415.667512,1043.44157 319.342789,1016.38698 C223.018066,989.332393 241.595737,744.162021 379.670851,474.114918 Z" id="horizontal-copy-4" transform="translate(551.490978, 552.253990) scale(-1, 1) rotate(20.000000) translate(-551.490978, -552.253990) "></path>
                <path d="M379.670851,474.114918 C517.745966,204.067815 746.188109,14.9966461 812.688572,108.740646 C879.189035,202.484645 838.008714,413.996497 701.634827,667.734075 C565.26094,921.471652 415.667512,1043.44157 319.342789,1016.38698 C223.018066,989.332393 241.595737,744.162021 379.670851,474.114918 Z" id="horizontal-copy-5" transform="translate(551.490978, 552.253990) scale(-1, 1) rotate(25.000000) translate(-551.490978, -552.253990) "></path>
                <path d="M379.670851,474.114918 C517.745966,204.067815 746.188109,14.9966461 812.688572,108.740646 C879.189035,202.484645 838.008714,413.996497 701.634827,667.734075 C565.26094,921.471652 415.667512,1043.44157 319.342789,1016.38698 C223.018066,989.332393 241.595737,744.162021 379.670851,474.114918 Z" id="horizontal-copy-6" transform="translate(551.490978, 552.253990) scale(-1, 1) rotate(30.000000) translate(-551.490978, -552.253990) "></path>
                <path d="M379.670851,474.114918 C517.745966,204.067815 746.188109,14.9966461 812.688572,108.740646 C879.189035,202.484645 838.008714,413.996497 701.634827,667.734075 C565.26094,921.471652 415.667512,1043.44157 319.342789,1016.38698 C223.018066,989.332393 241.595737,744.162021 379.670851,474.114918 Z" id="horizontal-copy-7" transform="translate(551.490978, 552.253990) scale(-1, 1) rotate(35.000000) translate(-551.490978, -552.253990) "></path>
                <path d="M379.670851,474.114918 C517.745966,204.067815 746.188109,14.9966461 812.688572,108.740646 C879.189035,202.484645 838.008714,413.996497 701.634827,667.734075 C565.26094,921.471652 415.667512,1043.44157 319.342789,1016.38698 C223.018066,989.332393 241.595737,744.162021 379.670851,474.114918 Z" id="horizontal-copy-8" transform="translate(551.490978, 552.253990) scale(-1, 1) rotate(40.000000) translate(-551.490978, -552.253990) "></path>
                <path d="M379.670851,474.114918 C517.745966,204.067815 746.188109,14.9966461 812.688572,108.740646 C879.189035,202.484645 838.008714,413.996497 701.634827,667.734075 C565.26094,921.471652 415.667512,1043.44157 319.342789,1016.38698 C223.018066,989.332393 241.595737,744.162021 379.670851,474.114918 Z" id="horizontal-copy-9" transform="translate(551.490978, 552.253990) scale(-1, 1) rotate(50.000000) translate(-551.490978, -552.253990) "></path>
                <path d="M379.670851,474.114918 C517.745966,204.067815 746.188109,14.9966461 812.688572,108.740646 C879.189035,202.484645 838.008714,413.996497 701.634827,667.734075 C565.26094,921.471652 415.667512,1043.44157 319.342789,1016.38698 C223.018066,989.332393 241.595737,744.162021 379.670851,474.114918 Z" id="horizontal-copy-10" transform="translate(551.490978, 552.253990) scale(-1, 1) rotate(55.000000) translate(-551.490978, -552.253990) "></path>
                <path d="M379.670851,474.114918 C517.745966,204.067815 746.188109,14.9966461 812.688572,108.740646 C879.189035,202.484645 838.008714,413.996497 701.634827,667.734075 C565.26094,921.471652 415.667512,1043.44157 319.342789,1016.38698 C223.018066,989.332393 241.595737,744.162021 379.670851,474.114918 Z" id="horizontal-copy-35" transform="translate(551.490978, 552.253990) scale(-1, 1) rotate(60.000000) translate(-551.490978, -552.253990) "></path>
                <path d="M379.670851,474.114918 C517.745966,204.067815 746.188109,14.9966461 812.688572,108.740646 C879.189035,202.484645 838.008714,413.996497 701.634827,667.734075 C565.26094,921.471652 415.667512,1043.44157 319.342789,1016.38698 C223.018066,989.332393 241.595737,744.162021 379.670851,474.114918 Z" id="horizontal-copy-11" transform="translate(551.490978, 552.253990) scale(-1, 1) rotate(45.000000) translate(-551.490978, -552.253990) "></path>
                <path d="M379.670851,474.114918 C517.745966,204.067815 746.188109,14.9966461 812.688572,108.740646 C879.189035,202.484645 838.008714,413.996497 701.634827,667.734075 C565.26094,921.471652 415.667512,1043.44157 319.342789,1016.38698 C223.018066,989.332393 241.595737,744.162021 379.670851,474.114918 Z" id="horizontal-copy-12" transform="translate(551.490978, 552.253990) scale(-1, 1) rotate(66.000000) translate(-551.490978, -552.253990) "></path>
                <path d="M379.670851,474.114918 C517.745966,204.067815 746.188109,14.9966461 812.688572,108.740646 C879.189035,202.484645 838.008714,413.996497 701.634827,667.734075 C565.26094,921.471652 415.667512,1043.44157 319.342789,1016.38698 C223.018066,989.332393 241.595737,744.162021 379.670851,474.114918 Z" id="horizontal-copy-13" transform="translate(551.490978, 552.253990) scale(-1, 1) rotate(71.000000) translate(-551.490978, -552.253990) "></path>
                <path d="M379.670851,474.114918 C517.745966,204.067815 746.188109,14.9966461 812.688572,108.740646 C879.189035,202.484645 838.008714,413.996497 701.634827,667.734075 C565.26094,921.471652 415.667512,1043.44157 319.342789,1016.38698 C223.018066,989.332393 241.595737,744.162021 379.670851,474.114918 Z" id="horizontal-copy-14" transform="translate(551.490978, 552.253990) scale(-1, 1) rotate(76.000000) translate(-551.490978, -552.253990) "></path>
                <path d="M379.670851,474.114918 C517.745966,204.067815 746.188109,14.9966461 812.688572,108.740646 C879.189035,202.484645 838.008714,413.996497 701.634827,667.734075 C565.26094,921.471652 415.667512,1043.44157 319.342789,1016.38698 C223.018066,989.332393 241.595737,744.162021 379.670851,474.114918 Z" id="horizontal-copy-15" transform="translate(551.490978, 552.253990) scale(-1, 1) rotate(81.000000) translate(-551.490978, -552.253990) "></path>
                <path d="M379.670851,474.114918 C517.745966,204.067815 746.188109,14.9966461 812.688572,108.740646 C879.189035,202.484645 838.008714,413.996497 701.634827,667.734075 C565.26094,921.471652 415.667512,1043.44157 319.342789,1016.38698 C223.018066,989.332393 241.595737,744.162021 379.670851,474.114918 Z" id="horizontal-copy-16" transform="translate(551.490978, 552.253990) scale(-1, 1) rotate(86.000000) translate(-551.490978, -552.253990) "></path>
                <path d="M379.670851,474.114918 C517.745966,204.067815 746.188109,14.9966461 812.688572,108.740646 C879.189035,202.484645 838.008714,413.996497 701.634827,667.734075 C565.26094,921.471652 415.667512,1043.44157 319.342789,1016.38698 C223.018066,989.332393 241.595737,744.162021 379.670851,474.114918 Z" id="horizontal-copy-17" transform="translate(551.490978, 552.253990) scale(-1, 1) rotate(91.000000) translate(-551.490978, -552.253990) "></path>
                <path d="M379.670851,474.114918 C517.745966,204.067815 746.188109,14.9966461 812.688572,108.740646 C879.189035,202.484645 838.008714,413.996497 701.634827,667.734075 C565.26094,921.471652 415.667512,1043.44157 319.342789,1016.38698 C223.018066,989.332393 241.595737,744.162021 379.670851,474.114918 Z" id="horizontal-copy-18" transform="translate(551.490978, 552.253990) scale(-1, 1) rotate(96.000000) translate(-551.490978, -552.253990) "></path>
                <path d="M379.670851,474.114918 C517.745966,204.067815 746.188109,14.9966461 812.688572,108.740646 C879.189035,202.484645 838.008714,413.996497 701.634827,667.734075 C565.26094,921.471652 415.667512,1043.44157 319.342789,1016.38698 C223.018066,989.332393 241.595737,744.162021 379.670851,474.114918 Z" id="horizontal-copy-19" transform="translate(551.490978, 552.253990) scale(-1, 1) rotate(101.000000) translate(-551.490978, -552.253990) "></path>
                <path d="M379.670851,474.114918 C517.745966,204.067815 746.188109,14.9966461 812.688572,108.740646 C879.189035,202.484645 838.008714,413.996497 701.634827,667.734075 C565.26094,921.471652 415.667512,1043.44157 319.342789,1016.38698 C223.018066,989.332393 241.595737,744.162021 379.670851,474.114918 Z" id="horizontal-copy-20" transform="translate(551.490978, 552.253990) scale(-1, 1) rotate(106.000000) translate(-551.490978, -552.253990) "></path>
                <path d="M379.670851,474.114918 C517.745966,204.067815 746.188109,14.9966461 812.688572,108.740646 C879.189035,202.484645 838.008714,413.996497 701.634827,667.734075 C565.26094,921.471652 415.667512,1043.44157 319.342789,1016.38698 C223.018066,989.332393 241.595737,744.162021 379.670851,474.114918 Z" id="horizontal-copy-21" transform="translate(551.490978, 552.253990) scale(-1, 1) rotate(111.000000) translate(-551.490978, -552.253990) "></path>
                <path d="M379.670851,474.114918 C517.745966,204.067815 746.188109,14.9966461 812.688572,108.740646 C879.189035,202.484645 838.008714,413.996497 701.634827,667.734075 C565.26094,921.471652 415.667512,1043.44157 319.342789,1016.38698 C223.018066,989.332393 241.595737,744.162021 379.670851,474.114918 Z" id="horizontal-copy-22" transform="translate(551.490978, 552.253990) scale(-1, 1) rotate(116.000000) translate(-551.490978, -552.253990) "></path>
                <path d="M379.670851,474.114918 C517.745966,204.067815 746.188109,14.9966461 812.688572,108.740646 C879.189035,202.484645 838.008714,413.996497 701.634827,667.734075 C565.26094,921.471652 415.667512,1043.44157 319.342789,1016.38698 C223.018066,989.332393 241.595737,744.162021 379.670851,474.114918 Z" id="horizontal-copy-23" transform="translate(551.490978, 552.253990) scale(-1, 1) rotate(116.000000) translate(-551.490978, -552.253990) "></path>
                <path d="M379.670851,474.114918 C517.745966,204.067815 746.188109,14.9966461 812.688572,108.740646 C879.189035,202.484645 838.008714,413.996497 701.634827,667.734075 C565.26094,921.471652 415.667512,1043.44157 319.342789,1016.38698 C223.018066,989.332393 241.595737,744.162021 379.670851,474.114918 Z" id="horizontal-copy-36" transform="translate(551.490978, 552.253990) scale(-1, 1) rotate(120.000000) translate(-551.490978, -552.253990) "></path>
                <path d="M379.670851,474.114918 C517.745966,204.067815 746.188109,14.9966461 812.688572,108.740646 C879.189035,202.484645 838.008714,413.996497 701.634827,667.734075 C565.26094,921.471652 415.667512,1043.44157 319.342789,1016.38698 C223.018066,989.332393 241.595737,744.162021 379.670851,474.114918 Z" id="horizontal-copy-24" transform="translate(551.490978, 552.253990) scale(-1, 1) rotate(125.000000) translate(-551.490978, -552.253990) "></path>
                <path d="M379.670851,474.114918 C517.745966,204.067815 746.188109,14.9966461 812.688572,108.740646 C879.189035,202.484645 838.008714,413.996497 701.634827,667.734075 C565.26094,921.471652 415.667512,1043.44157 319.342789,1016.38698 C223.018066,989.332393 241.595737,744.162021 379.670851,474.114918 Z" id="horizontal-copy-25" transform="translate(551.490978, 552.253990) scale(-1, 1) rotate(130.000000) translate(-551.490978, -552.253990) "></path>
                <path d="M379.670851,474.114918 C517.745966,204.067815 746.188109,14.9966461 812.688572,108.740646 C879.189035,202.484645 838.008714,413.996497 701.634827,667.734075 C565.26094,921.471652 415.667512,1043.44157 319.342789,1016.38698 C223.018066,989.332393 241.595737,744.162021 379.670851,474.114918 Z" id="horizontal-copy-26" transform="translate(551.490978, 552.253990) scale(-1, 1) rotate(135.000000) translate(-551.490978, -552.253990) "></path>
                <path d="M379.670851,474.114918 C517.745966,204.067815 746.188109,14.9966461 812.688572,108.740646 C879.189035,202.484645 838.008714,413.996497 701.634827,667.734075 C565.26094,921.471652 415.667512,1043.44157 319.342789,1016.38698 C223.018066,989.332393 241.595737,744.162021 379.670851,474.114918 Z" id="horizontal-copy-27" transform="translate(551.490978, 552.253990) scale(-1, 1) rotate(140.000000) translate(-551.490978, -552.253990) "></path>
                <path d="M379.670851,474.114918 C517.745966,204.067815 746.188109,14.9966461 812.688572,108.740646 C879.189035,202.484645 838.008714,413.996497 701.634827,667.734075 C565.26094,921.471652 415.667512,1043.44157 319.342789,1016.38698 C223.018066,989.332393 241.595737,744.162021 379.670851,474.114918 Z" id="horizontal-copy-28" transform="translate(551.490978, 552.253990) scale(-1, 1) rotate(145.000000) translate(-551.490978, -552.253990) "></path>
                <path d="M379.670851,474.114918 C517.745966,204.067815 746.188109,14.9966461 812.688572,108.740646 C879.189035,202.484645 838.008714,413.996497 701.634827,667.734075 C565.26094,921.471652 415.667512,1043.44157 319.342789,1016.38698 C223.018066,989.332393 241.595737,744.162021 379.670851,474.114918 Z" id="horizontal-copy-29" transform="translate(551.490978, 552.253990) scale(-1, 1) rotate(150.000000) translate(-551.490978, -552.253990) "></path>
                <path d="M379.670851,474.114918 C517.745966,204.067815 746.188109,14.9966461 812.688572,108.740646 C879.189035,202.484645 838.008714,413.996497 701.634827,667.734075 C565.26094,921.471652 415.667512,1043.44157 319.342789,1016.38698 C223.018066,989.332393 241.595737,744.162021 379.670851,474.114918 Z" id="horizontal-copy-30" transform="translate(551.490978, 552.253990) scale(-1, 1) rotate(155.000000) translate(-551.490978, -552.253990) "></path>
                <path d="M379.670851,474.114918 C517.745966,204.067815 746.188109,14.9966461 812.688572,108.740646 C879.189035,202.484645 838.008714,413.996497 701.634827,667.734075 C565.26094,921.471652 415.667512,1043.44157 319.342789,1016.38698 C223.018066,989.332393 241.595737,744.162021 379.670851,474.114918 Z" id="horizontal-copy-31" transform="translate(551.490978, 552.253990) scale(-1, 1) rotate(160.000000) translate(-551.490978, -552.253990) "></path>
                <path d="M379.670851,474.114918 C517.745966,204.067815 746.188109,14.9966461 812.688572,108.740646 C879.189035,202.484645 838.008714,413.996497 701.634827,667.734075 C565.26094,921.471652 415.667512,1043.44157 319.342789,1016.38698 C223.018066,989.332393 241.595737,744.162021 379.670851,474.114918 Z" id="horizontal-copy-32" transform="translate(551.490978, 552.253990) scale(-1, 1) rotate(165.000000) translate(-551.490978, -552.253990) "></path>
                <path d="M379.670851,474.114918 C517.745966,204.067815 746.188109,14.9966461 812.688572,108.740646 C879.189035,202.484645 838.008714,413.996497 701.634827,667.734075 C565.26094,921.471652 415.667512,1043.44157 319.342789,1016.38698 C223.018066,989.332393 241.595737,744.162021 379.670851,474.114918 Z" id="horizontal-copy-33" transform="translate(551.490978, 552.253990) scale(-1, 1) rotate(170.000000) translate(-551.490978, -552.253990) "></path>
                <path d="M379.670851,474.114918 C517.745966,204.067815 746.188109,14.9966461 812.688572,108.740646 C879.189035,202.484645 838.008714,413.996497 701.634827,667.734075 C565.26094,921.471652 415.667512,1043.44157 319.342789,1016.38698 C223.018066,989.332393 241.595737,744.162021 379.670851,474.114918 Z" id="horizontal-copy-34" transform="translate(551.490978, 552.253990) scale(-1, 1) rotate(175.000000) translate(-551.490978, -552.253990) "></path>
            </g>
        </g>
    </g>
</svg>