<svg viewBox="0 0 1046 1046" xmlns="http://www.w3.org/2000/svg"><title>guilloche</title><g stroke="#DAE6F1" stroke-width="5" fill="none" fill-rule="evenodd" opacity=".5"><path d="M694.607 444.728C556.532 174.68 328.09-14.39 261.59 79.354c-66.5 93.744-25.32 305.256 111.054 558.993C509.017 892.085 658.61 1014.055 754.935 987c96.325-27.055 77.747-272.225-60.328-542.272z"/><path d="M687.143 430.05C526.057 173.065 282.006 4.623 223.929 103.806c-58.077 99.183 1.38 306.301 159.35 547.188C541.25 891.88 700.903 1000.348 794.504 965c93.6-35.347 53.725-277.965-107.361-534.95z"/><path d="M678.428 416.079C495.558 174.11 237.754 27.58 188.542 131.449c-49.211 103.867 28.072 305.014 206.435 531.216s346.864 320.342 437.027 276.972c90.164-43.37 29.295-281.59-153.576-523.558z"/><path d="M668.529 402.92C465.265 177.811 195.672 54.308 155.699 162.07c-39.971 107.761 54.55 301.408 251.949 511.203C605.047 883.068 781.11 962.164 867.15 911.101c86.04-51.064 4.641-283.072-198.622-508.18z"/><path d="M657.52 390.674C435.41 184.138 156.079 84.601 125.651 195.436c-30.428 110.835 80.61 295.506 295.543 487.299S818.415 937.978 899.678 879.61c81.262-58.368-20.048-282.399-242.158-488.936z"/><path d="M645.486 379.435C406.22 193.042 119.276 118.229 98.625 231.295 77.973 344.36 204.684 518.65 435.515 690.98c230.83 172.33 417.955 219.652 493.82 154.423 75.867-65.228-44.584-279.577-283.85-465.97z"/><path d="M632.518 369.287c-254.6-164.83-546.972-214.35-557.691-99.915-10.72 114.435 130.7 277.02 375.672 428.576 244.972 151.556 435.508 182.388 505.4 110.796 69.893-71.592-68.78-274.627-323.38-439.457z"/><path d="M618.715 360.307C350.718 218.294 55.142 194.445 54.438 309.38c-.705 114.934 154.346 264.574 411.595 394.203 257.249 129.629 449.748 143.737 513.134 66.326 63.387-77.412-92.455-267.588-360.452-409.6z"/><path d="M604.182 352.565C324.827 234.45 28.298 236.453 37.613 351.011 46.928 465.568 214.431 601.126 482 707.84c267.568 106.714 460.564 103.992 516.963 21.35 56.398-82.64-115.425-258.51-394.78-376.626z"/><path d="M573.373 341.018c-295.621-67.81-587.298-14.347-558.232 96.853 29.067 111.2 217.565 215.611 499.598 274.242 282.034 58.63 471.625 22.436 512.816-68.743 41.192-91.18-158.561-234.54-454.182-302.352z"/><path d="M557.331 337.301C256.925 295.513-28.982 374.195 9.665 482.44c38.648 108.243 235.528 195.828 521.599 229.655 286.07 33.827 471.785-18.753 504.873-113.176 33.088-94.422-178.4-219.828-478.806-261.617z"/><path d="M541.027 334.997C238.12 319.55-39.84 422.85 8.094 527.314c47.935 104.463 251.7 174.556 539.63 183.321 287.93 8.766 468.356-59.8 493.088-156.748 24.732-96.947-196.88-203.443-499.785-218.89z"/><path d="M589.03 346.12C300.444 252.8 5.217 280.64 24.48 393.95c19.264 113.31 197.945 233.753 473.795 316.741 275.85 82.99 467.875 63.456 516.856-23.786 48.982-87.242-137.517-247.468-426.102-340.786z"/><path d="M521.289 334.12c-302.86 16.3-568.501 148.09-509.91 246.97C69.97 679.97 279.945 728.38 567.214 707c287.27-21.38 459.54-108.43 474.003-207.431 14.463-99.001-217.068-181.75-519.928-165.45z"/><path d="M504.844 334.968C204.557 377.602-48.587 532.043 18.4 625.44c66.987 93.398 280.382 123.323 564.695 76.987 284.312-46.335 448.34-148.069 454.12-247.954 5.78-99.884-232.082-162.139-532.37-119.505z"/><path d="M488.536 337.247C193.107 405.89-45.613 581.807 29.258 669.01c74.872 87.204 290.063 98.416 569.256 27.478 279.192-70.938 433.729-186.58 430.781-286.59-2.948-100.008-245.33-141.294-540.759-72.65z"/><path d="M472.489 340.939C184.166 435.069-38.313 631.122 43.874 711.468c82.187 80.347 297.536 72.761 569.484-22.24 271.947-95.002 415.817-223.674 404.164-323.045-11.653-99.37-256.711-119.375-545.033-25.244z"/><path d="M456.824 346.015C177.803 464.915-26.743 679.613 62.134 752.49c88.877 72.878 302.746 46.552 565.378-71.79 262.633-118.341 394.74-259.062 374.471-357.04-20.27-97.977-266.138-96.547-545.16 22.355z"/><path d="M441.661 352.437C174.065 495.204-10.99 726.91 83.9 791.765c94.89 64.854 305.651 19.989 556.97-120.792 251.319-140.782 370.66-292.481 341.928-388.32-28.732-95.837-273.54-72.983-541.137 69.784z"/><path d="M427.116 360.156C172.98 525.702 8.824 772.656 109.006 828.993c100.182 56.338 306.23-6.726 544.323-168.876C891.42 497.967 997.086 336.445 960.11 243.475c-36.975-92.969-278.86-48.865-532.995 116.68z"/><path d="M413.299 369.113C174.559 556.18 32.55 816.501 137.26 863.892c104.71 47.391 304.479-33.39 527.533-215.674 223.055-182.284 314.24-352.402 269.303-441.795-44.938-89.392-282.059-24.375-520.798 162.69z"/><path d="M400.315 379.24C178.788 586.403 60.008 858.11 168.45 896.196c108.443 38.085 300.41-59.8 506.729-260.831 206.318-201.03 282.33-378.449 229.773-463.585-52.558-85.136-283.11.3-504.637 207.462z"/><path d="M388.263 390.462C185.634 616.142 90.987 897.168 202.336 925.657c111.35 28.489 294.055-85.756 482.068-304.003 188.012-218.247 248.271-401.615 188.494-481.846-59.777-80.232-282.006 24.973-484.635 250.654z"/><path d="M377.235 402.69C195.047 645.172 125.253 933.378 238.661 952.053 352.07 970.73 524.123 840.996 692.4 607.193c168.275-233.804 212.323-421.726 145.78-496.442-66.542-74.716-278.755 49.457-460.944 291.939z"/><path d="M377.235 402.69C195.047 645.172 125.253 933.378 238.661 952.053 352.07 970.73 524.123 840.996 692.4 607.193c168.275-233.804 212.323-421.726 145.78-496.442-66.542-74.716-278.755 49.457-460.944 291.939z"/><path d="M369.207 413.136c-164.83 254.6-214.35 546.972-99.915 557.691 114.435 10.72 277.02-130.7 428.576-375.672 151.556-244.972 182.388-435.508 110.796-505.4-71.592-69.893-274.627 68.78-439.457 323.38z"/><path d="M360.227 426.939C218.214 694.936 194.365 990.512 309.3 991.216c114.934.705 264.574-154.346 394.203-411.595C833.13 322.372 847.239 129.873 769.828 66.487 692.416 3.1 502.24 158.942 360.228 426.939z"/><path d="M352.485 441.472c-118.115 279.355-116.112 575.884-1.554 566.569 114.557-9.315 250.115-176.818 356.83-444.386C814.474 296.087 811.752 103.09 729.11 46.692c-82.64-56.398-258.51 115.425-376.626 394.78z"/><path d="M346.04 456.624c-93.32 288.586-65.48 583.813 47.83 564.549 113.31-19.264 233.753-197.945 316.741-473.795 82.99-275.85 63.456-467.875-23.786-516.856-87.242-48.982-247.468 137.517-340.786 426.102z"/><path d="M340.938 472.281c-67.81 295.621-14.347 587.298 96.853 558.232 111.2-29.067 215.611-217.565 274.242-499.598C770.663 248.88 734.469 59.29 643.29 18.099 552.11-23.093 408.75 176.66 340.938 472.28z"/><path d="M337.221 488.323c-41.788 300.406 36.894 586.313 145.138 547.666C590.602 997.34 678.187 800.46 712.014 514.39 745.841 228.32 693.261 42.605 598.838 9.517c-94.422-33.088-219.828 178.4-261.617 478.806z"/><path d="M334.917 504.627c-15.447 302.906 87.854 580.867 192.317 532.933 104.463-47.935 174.556-251.7 183.321-539.63C719.321 210 650.755 29.574 553.807 4.842c-96.947-24.732-203.443 196.88-218.89 499.785z"/><path d="M334.042 521.07c11.012 303.1 138.146 571 238.034 514.143 99.887-56.856 151.954-265.955 135.592-553.553C691.305 194.062 607.274 20.298 508.54 4.11c-98.733-16.19-185.51 213.862-174.498 516.96z"/><path d="M334.604 537.528c37.386 300.986 187.386 556.786 281.938 491.44 94.552-65.346 128.197-278.187 86.83-563.265C662.007 180.625 563.152 14.847 463.383 7.325 363.613-.197 297.217 236.542 334.604 537.528z"/><path d="M336.598 553.873c63.477 296.582 235.2 538.336 323.697 464.998 88.497-73.338 103.463-288.301 37.408-568.69C631.648 169.795 518.72 13.264 418.676 14.466 318.63 15.667 273.12 257.29 336.598 553.873z"/><path d="M340.009 569.983C429.093 859.903 621.232 1085.77 703 1004.999c81.769-80.772 77.943-296.222-12.298-569.785C600.462 161.65 474.32 15.556 374.762 25.474c-99.56 9.916-123.838 254.588-34.753 544.509z"/><path d="M344.81 585.734c114.014 281.053 325.108 489.315 399.526 401.724 74.418-87.592 51.829-301.888-61.912-566.546C568.684 156.254 430.29 21.711 331.974 40.267 233.658 58.824 230.797 304.68 344.81 585.734z"/></g></svg>