<svg xmlns="http://www.w3.org/2000/svg" xmlns:xlink="http://www.w3.org/1999/xlink" version="1.1" x="0px" y="0px" viewBox="0 0 100 125" enable-background="new 0 0 100 100" xml:space="preserve"><g><g><g><g><g><path d="M95.1,16.3c-2.2,13.8-5,33.7-21.7,37.5c-4,0.9-7.5,0.9-11.5-0.1c-5-1.2-7.9-5.9-13.4-5.8c-9.6,0.3-19.1,6-24.5,13.9       c-0.1,0.1-0.2,0.2-0.2,0.3c3,10.4,6.1,20.8,9.1,31.2c1.6,5.4-6.8,7.7-8.4,2.3C21,84.1,17.7,72.5,14.3,61       C10.9,49.3,7.5,37.6,4.1,25.9c-0.3-1-0.2-1.8,0-2.5c0-0.6,0.1-1.3,0.4-2c7.3-16.1,26.4-26.4,43-16.5       C54.8,9.3,59.7,17,67.1,21.2c7.8,4.4,18.2,2.4,19.6-7.2c0-0.1,0-0.3,0.1-0.4c0.5-2.1,2.2-2.9,3.9-2.7c0,0,0,0,0,0       c0.3,0,0.5,0.1,0.8,0.2c0.1,0,0.2,0.1,0.4,0.1c1.6,0.6,3.1,2,3.2,4c0,0.1,0,0.3,0,0.4c0,0.1,0,0.2,0,0.3       C95.2,16,95.1,16.2,95.1,16.3z"/><path d="M91.9,11.1c1.6,0.6,3.1,2,3.2,4C95,13.2,93.5,11.8,91.9,11.1z"/><path d="M90.7,10.9c-1.7-0.2-3.4,0.6-3.9,2.7C87.3,11.5,89,10.7,90.7,10.9z"/></g></g></g></g></g></svg>