<?xml version="1.0" encoding="utf-8"?>
<!-- Generator: Adobe Illustrator 17.0.0, SVG Export Plug-In . SVG Version: 6.00 Build 0)  -->
<!DOCTYPE svg PUBLIC "-//W3C//DTD SVG 1.1//EN" "http://www.w3.org/Graphics/SVG/1.1/DTD/svg11.dtd">
<svg version="1.1" id="Layer_1" xmlns="http://www.w3.org/2000/svg" xmlns:xlink="http://www.w3.org/1999/xlink" x="0px" y="0px"
	 width="365.851px" height="95.828px" viewBox="0 0 365.851 95.828" enable-background="new 0 0 365.851 95.828"
	 xml:space="preserve">
<g>
	<path fill="#666" d="M113.231,39.015V9.774h4.133c0.722,0,1.226,0.128,1.511,0.385c0.285,0.257,0.475,0.718,0.57,1.382
		l0.398,3.306c0.931-1.748,2.023-3.121,3.277-4.118s2.736-1.497,4.446-1.497c1.349,0,2.432,0.295,3.249,0.884l-0.456,5.272
		c-0.096,0.342-0.232,0.584-0.413,0.727c-0.181,0.143-0.423,0.214-0.727,0.214c-0.285,0-0.708-0.047-1.269-0.143
		c-0.561-0.095-1.107-0.143-1.639-0.143c-0.779,0-1.473,0.114-2.081,0.342c-0.607,0.228-1.153,0.556-1.639,0.983
		c-0.484,0.427-0.911,0.945-1.282,1.553c-0.37,0.608-0.718,1.301-1.04,2.08v18.012H113.231z"/>
	<path fill="#666" d="M144.695,9.318c1.843,0,3.543,0.294,5.102,0.883c1.558,0.589,2.897,1.449,4.019,2.579
		c1.12,1.131,1.999,2.518,2.636,4.161c0.637,1.644,0.955,3.52,0.955,5.629c0,1.064-0.114,1.781-0.342,2.151
		c-0.229,0.371-0.666,0.556-1.312,0.556h-18.098c0.114,1.501,0.38,2.798,0.799,3.89c0.417,1.093,0.969,1.995,1.652,2.708
		c0.685,0.712,1.496,1.245,2.437,1.596c0.941,0.352,1.981,0.527,3.121,0.527s2.123-0.133,2.95-0.399
		c0.826-0.266,1.548-0.56,2.166-0.883c0.617-0.323,1.158-0.617,1.624-0.884c0.466-0.266,0.917-0.399,1.354-0.399
		c0.589,0,1.026,0.219,1.312,0.656l2.023,2.565c-0.779,0.912-1.653,1.677-2.622,2.294c-0.969,0.618-1.98,1.112-3.035,1.482
		c-1.055,0.371-2.128,0.632-3.221,0.784c-1.093,0.152-2.151,0.228-3.178,0.228c-2.033,0-3.924-0.338-5.672-1.012
		c-1.748-0.674-3.268-1.671-4.56-2.992c-1.292-1.32-2.309-2.954-3.05-4.902c-0.74-1.948-1.111-4.204-1.111-6.769
		c0-1.995,0.323-3.871,0.969-5.629c0.646-1.757,1.572-3.287,2.779-4.588c1.206-1.301,2.679-2.332,4.417-3.092
		C140.548,9.698,142.509,9.318,144.695,9.318z M144.837,14.363c-2.052,0-3.658,0.58-4.816,1.738c-1.159,1.159-1.9,2.803-2.224,4.931
		h13.281c0-0.912-0.128-1.771-0.385-2.58c-0.257-0.807-0.642-1.515-1.154-2.123c-0.513-0.608-1.164-1.087-1.952-1.439
		C146.798,14.538,145.882,14.363,144.837,14.363z"/>
	<path fill="#666" d="M180.376,39.015c-0.665,0-1.179-0.1-1.539-0.299c-0.361-0.199-0.646-0.603-0.855-1.211l-0.627-2.08
		c-0.74,0.665-1.463,1.25-2.166,1.752c-0.703,0.504-1.435,0.926-2.194,1.269c-0.76,0.342-1.572,0.598-2.437,0.77
		c-0.865,0.171-1.819,0.256-2.864,0.256c-1.235,0-2.375-0.167-3.42-0.499c-1.045-0.332-1.948-0.831-2.708-1.496
		c-0.76-0.665-1.349-1.491-1.767-2.479c-0.418-0.988-0.627-2.137-0.627-3.448c0-1.102,0.289-2.19,0.869-3.264
		c0.579-1.073,1.544-2.042,2.893-2.907c1.35-0.864,3.145-1.582,5.387-2.152s5.035-0.893,8.379-0.969v-1.71
		c0-1.957-0.418-3.406-1.254-4.347c-0.836-0.94-2.043-1.411-3.619-1.411c-1.141,0-2.086,0.133-2.836,0.399
		c-0.751,0.267-1.411,0.566-1.98,0.898c-0.57,0.333-1.088,0.632-1.554,0.898s-0.983,0.399-1.553,0.399
		c-0.495,0-0.912-0.128-1.255-0.385c-0.342-0.257-0.617-0.556-0.826-0.898l-1.254-2.251c3.363-3.078,7.41-4.617,12.141-4.617
		c1.71,0,3.239,0.281,4.589,0.841c1.349,0.561,2.489,1.34,3.42,2.337c0.931,0.998,1.639,2.19,2.123,3.577
		c0.484,1.387,0.728,2.907,0.728,4.56v18.468H180.376z M169.86,34.626c1.443,0,2.693-0.261,3.748-0.784
		c1.055-0.522,2.085-1.315,3.092-2.38v-4.93c-2.052,0.095-3.767,0.271-5.145,0.527c-1.377,0.256-2.484,0.584-3.319,0.983
		c-0.837,0.399-1.436,0.865-1.796,1.396c-0.361,0.532-0.542,1.112-0.542,1.739c0,1.235,0.366,2.119,1.098,2.65
		C167.727,34.36,168.681,34.626,169.86,34.626z"/>
	<path fill="#666" d="M209.702,15.958c-0.21,0.267-0.413,0.475-0.613,0.627c-0.199,0.152-0.489,0.228-0.869,0.228
		c-0.361,0-0.712-0.109-1.055-0.328c-0.342-0.218-0.751-0.465-1.226-0.741c-0.475-0.275-1.04-0.522-1.695-0.741
		c-0.655-0.218-1.468-0.328-2.437-0.328c-1.235,0-2.318,0.224-3.249,0.669c-0.932,0.447-1.706,1.088-2.323,1.924
		c-0.617,0.836-1.078,1.848-1.382,3.035c-0.305,1.188-0.456,2.532-0.456,4.033c0,1.559,0.166,2.945,0.499,4.161
		c0.332,1.216,0.812,2.237,1.438,3.064c0.627,0.826,1.387,1.454,2.28,1.881c0.893,0.428,1.899,0.641,3.021,0.641
		c1.12,0,2.027-0.137,2.722-0.413c0.693-0.275,1.277-0.58,1.753-0.912c0.475-0.332,0.888-0.636,1.239-0.912
		c0.352-0.275,0.745-0.413,1.183-0.413c0.57,0,0.998,0.219,1.282,0.656l2.023,2.565c-0.779,0.912-1.624,1.677-2.536,2.294
		c-0.912,0.618-1.857,1.112-2.836,1.482c-0.979,0.371-1.985,0.632-3.021,0.784c-1.036,0.152-2.066,0.228-3.093,0.228
		c-1.805,0-3.505-0.338-5.102-1.012c-1.596-0.674-2.992-1.657-4.189-2.95c-1.196-1.292-2.142-2.874-2.835-4.745
		c-0.694-1.871-1.041-4.004-1.041-6.398c0-2.146,0.309-4.137,0.927-5.971c0.617-1.833,1.524-3.42,2.722-4.759
		s2.679-2.389,4.446-3.149c1.767-0.76,3.8-1.14,6.099-1.14c2.185,0,4.099,0.352,5.743,1.054c1.643,0.703,3.12,1.71,4.432,3.021
		L209.702,15.958z"/>
	<path fill="#666" d="M224.549,39.471c-2.546,0-4.498-0.717-5.856-2.152c-1.358-1.434-2.038-3.415-2.038-5.942v-16.33h-2.992
		c-0.38,0-0.703-0.124-0.969-0.371c-0.267-0.247-0.399-0.617-0.399-1.112v-2.793l4.703-0.77l1.481-7.98
		c0.095-0.38,0.275-0.674,0.542-0.883c0.266-0.209,0.607-0.313,1.025-0.313h3.648v9.206h7.809v5.016h-7.809v15.846
		c0,0.912,0.223,1.625,0.67,2.138c0.446,0.513,1.059,0.77,1.838,0.77c0.437,0,0.803-0.052,1.098-0.157
		c0.294-0.104,0.551-0.214,0.77-0.328c0.218-0.114,0.413-0.223,0.584-0.328c0.171-0.104,0.342-0.157,0.513-0.157
		c0.209,0,0.38,0.053,0.513,0.157c0.133,0.104,0.275,0.262,0.428,0.47l2.109,3.42c-1.026,0.855-2.204,1.501-3.534,1.938
		C227.352,39.252,225.975,39.471,224.549,39.471z"/>
	<path fill="#666" d="M113.231,86.281V43.93h7.04v16.729c1.178-1.254,2.483-2.247,3.919-2.978
		c1.434-0.731,3.073-1.097,4.916-1.097c1.69,0,3.216,0.333,4.574,0.997c1.358,0.666,2.518,1.62,3.477,2.864
		c0.96,1.245,1.696,2.75,2.209,4.518c0.513,1.767,0.77,3.752,0.77,5.957c0,2.375-0.295,4.531-0.884,6.47
		c-0.589,1.938-1.43,3.596-2.521,4.973c-1.093,1.378-2.408,2.446-3.947,3.206s-3.249,1.141-5.13,1.141
		c-0.912,0-1.744-0.091-2.494-0.271c-0.751-0.181-1.435-0.433-2.052-0.756c-0.618-0.322-1.188-0.717-1.71-1.183
		c-0.523-0.466-1.021-0.983-1.496-1.554l-0.314,1.967c-0.113,0.494-0.309,0.846-0.584,1.055s-0.65,0.313-1.126,0.313H113.231z
		 M126.683,62.056c-1.349,0-2.527,0.309-3.534,0.926c-1.007,0.618-1.966,1.487-2.878,2.608V78.7
		c0.798,0.988,1.667,1.677,2.607,2.066s1.934,0.584,2.979,0.584c1.083,0,2.057-0.194,2.921-0.584
		c0.864-0.39,1.601-0.998,2.209-1.824s1.073-1.881,1.396-3.163c0.323-1.283,0.484-2.817,0.484-4.604c0-3.21-0.532-5.533-1.596-6.968
		C130.208,62.773,128.678,62.056,126.683,62.056z"/>
	<path fill="#666" d="M157.092,56.584c2.166,0,4.137,0.352,5.914,1.054c1.776,0.703,3.296,1.701,4.56,2.993
		s2.237,2.869,2.921,4.731c0.685,1.862,1.026,3.942,1.026,6.241c0,2.318-0.342,4.408-1.026,6.271
		c-0.684,1.862-1.657,3.448-2.921,4.759c-1.264,1.312-2.783,2.318-4.56,3.021c-1.777,0.703-3.748,1.055-5.914,1.055
		c-2.186,0-4.171-0.352-5.956-1.055c-1.786-0.703-3.312-1.71-4.575-3.021c-1.264-1.311-2.241-2.896-2.935-4.759
		c-0.694-1.862-1.041-3.952-1.041-6.271c0-2.299,0.347-4.379,1.041-6.241c0.693-1.862,1.671-3.439,2.935-4.731
		s2.789-2.29,4.575-2.993C152.921,56.935,154.907,56.584,157.092,56.584z M157.092,81.293c2.432,0,4.232-0.817,5.4-2.451
		c1.169-1.634,1.753-4.028,1.753-7.182c0-3.154-0.584-5.559-1.753-7.211c-1.168-1.653-2.969-2.479-5.4-2.479
		c-2.47,0-4.299,0.832-5.486,2.494c-1.188,1.664-1.781,4.061-1.781,7.197c0,3.135,0.594,5.524,1.781,7.167
		C152.793,80.471,154.623,81.293,157.092,81.293z"/>
	<path fill="#666" d="M183.74,48.518c0,0.608-0.124,1.179-0.371,1.71c-0.247,0.532-0.574,0.998-0.982,1.397
		c-0.409,0.399-0.889,0.717-1.439,0.955c-0.552,0.238-1.141,0.356-1.768,0.356c-0.608,0-1.183-0.118-1.724-0.356
		c-0.542-0.237-1.012-0.556-1.411-0.955c-0.398-0.399-0.717-0.865-0.955-1.397c-0.237-0.531-0.355-1.102-0.355-1.71
		c0-0.627,0.118-1.215,0.355-1.767c0.238-0.551,0.557-1.026,0.955-1.425c0.399-0.399,0.869-0.717,1.411-0.955
		c0.541-0.237,1.115-0.356,1.724-0.356c0.627,0,1.216,0.119,1.768,0.356c0.551,0.238,1.03,0.556,1.439,0.955
		c0.408,0.399,0.735,0.874,0.982,1.425S183.74,47.891,183.74,48.518z M182.771,57.039v29.241h-7.068V57.039H182.771z"/>
	<path fill="#666" d="M195.651,43.93v42.351h-7.039V43.93H195.651z"/>
	<path fill="#666" d="M213.72,56.584c1.843,0,3.543,0.294,5.102,0.883c1.558,0.589,2.897,1.449,4.019,2.579
		c1.12,1.131,1.999,2.518,2.636,4.161c0.637,1.644,0.955,3.52,0.955,5.629c0,1.064-0.114,1.781-0.342,2.151
		c-0.229,0.371-0.666,0.556-1.312,0.556H206.68c0.114,1.501,0.38,2.798,0.799,3.891c0.417,1.093,0.969,1.995,1.652,2.707
		c0.685,0.713,1.496,1.245,2.437,1.597c0.941,0.352,1.981,0.527,3.121,0.527s2.123-0.133,2.95-0.399
		c0.826-0.266,1.548-0.561,2.166-0.884c0.617-0.322,1.158-0.617,1.624-0.883c0.466-0.267,0.917-0.399,1.354-0.399
		c0.589,0,1.026,0.219,1.312,0.655l2.023,2.565c-0.779,0.912-1.653,1.677-2.622,2.294c-0.969,0.618-1.98,1.111-3.035,1.482
		c-1.055,0.37-2.128,0.631-3.221,0.783s-2.151,0.229-3.178,0.229c-2.033,0-3.924-0.338-5.672-1.012
		c-1.748-0.675-3.268-1.672-4.56-2.993c-1.292-1.32-2.309-2.954-3.05-4.901c-0.74-1.947-1.111-4.204-1.111-6.769
		c0-1.995,0.323-3.871,0.969-5.629c0.646-1.757,1.572-3.287,2.779-4.588c1.206-1.301,2.679-2.332,4.417-3.092
		C209.574,56.964,211.535,56.584,213.72,56.584z M213.863,61.628c-2.052,0-3.658,0.58-4.816,1.738
		c-1.159,1.159-1.9,2.803-2.224,4.931h13.281c0-0.912-0.128-1.771-0.385-2.58c-0.257-0.807-0.642-1.515-1.154-2.123
		c-0.513-0.608-1.164-1.087-1.952-1.439C215.824,61.804,214.908,61.628,213.863,61.628z"/>
	<path fill="#666" d="M230.278,86.281V57.039h4.133c0.722,0,1.226,0.128,1.511,0.385c0.285,0.257,0.475,0.718,0.57,1.382
		l0.398,3.306c0.931-1.748,2.023-3.121,3.277-4.118s2.736-1.497,4.446-1.497c1.349,0,2.432,0.295,3.249,0.884l-0.456,5.272
		c-0.096,0.342-0.232,0.584-0.413,0.727s-0.423,0.214-0.727,0.214c-0.285,0-0.708-0.047-1.269-0.143
		c-0.561-0.095-1.107-0.143-1.639-0.143c-0.779,0-1.473,0.114-2.081,0.342c-0.607,0.228-1.153,0.556-1.639,0.983
		c-0.484,0.427-0.911,0.945-1.282,1.553c-0.37,0.608-0.718,1.302-1.04,2.081v18.012H230.278z"/>
	<path fill="#666" d="M250.113,95.828V57.039h4.304c0.912,0,1.511,0.428,1.796,1.283l0.57,2.708
		c1.178-1.349,2.531-2.441,4.061-3.277s3.32-1.254,5.372-1.254c1.597,0,3.055,0.333,4.375,0.998c1.32,0.666,2.461,1.629,3.42,2.893
		s1.7,2.821,2.224,4.674c0.521,1.852,0.783,3.976,0.783,6.37c0,2.186-0.295,4.209-0.884,6.07c-0.589,1.862-1.43,3.478-2.521,4.846
		c-1.093,1.367-2.413,2.437-3.962,3.206s-3.282,1.154-5.201,1.154c-1.653,0-3.055-0.252-4.204-0.756
		c-1.149-0.503-2.18-1.201-3.092-2.095v11.971H250.113z M263.793,62.056c-1.464,0-2.713,0.309-3.748,0.926
		c-1.036,0.618-2,1.487-2.893,2.608V78.7c0.798,0.988,1.667,1.677,2.607,2.066s1.962,0.584,3.064,0.584
		c1.063,0,2.023-0.199,2.878-0.599c0.855-0.398,1.582-1.007,2.181-1.823c0.599-0.817,1.059-1.848,1.382-3.093
		c0.323-1.244,0.484-2.712,0.484-4.403c0-1.71-0.138-3.158-0.413-4.346s-0.67-2.152-1.183-2.893
		c-0.513-0.741-1.136-1.283-1.867-1.625C265.555,62.226,264.724,62.056,263.793,62.056z"/>
	<path fill="#666" d="M288.189,43.93v42.351h-7.039V43.93H288.189z"/>
	<path fill="#666" d="M312.926,86.281c-0.665,0-1.179-0.1-1.539-0.299c-0.361-0.2-0.646-0.604-0.855-1.212l-0.627-2.08
		c-0.74,0.665-1.463,1.249-2.166,1.753c-0.703,0.503-1.435,0.926-2.194,1.268c-0.76,0.343-1.572,0.599-2.437,0.77
		c-0.865,0.171-1.819,0.257-2.864,0.257c-1.235,0-2.375-0.167-3.42-0.499s-1.948-0.831-2.708-1.496s-1.349-1.491-1.767-2.479
		c-0.418-0.987-0.627-2.138-0.627-3.448c0-1.102,0.289-2.189,0.869-3.264c0.579-1.073,1.544-2.042,2.893-2.907
		c1.35-0.864,3.145-1.581,5.387-2.151s5.035-0.893,8.379-0.969v-1.71c0-1.957-0.418-3.406-1.254-4.347
		c-0.836-0.94-2.043-1.411-3.619-1.411c-1.141,0-2.086,0.133-2.836,0.399c-0.751,0.267-1.411,0.566-1.98,0.898
		c-0.57,0.333-1.088,0.632-1.554,0.898c-0.466,0.266-0.983,0.399-1.553,0.399c-0.495,0-0.912-0.128-1.255-0.385
		c-0.342-0.257-0.617-0.556-0.826-0.898l-1.254-2.251c3.363-3.078,7.41-4.617,12.141-4.617c1.71,0,3.239,0.281,4.589,0.841
		c1.349,0.561,2.489,1.34,3.42,2.337c0.931,0.998,1.639,2.19,2.123,3.577c0.484,1.387,0.728,2.907,0.728,4.56v18.468H312.926z
		 M302.41,81.892c1.443,0,2.693-0.262,3.748-0.784s2.085-1.315,3.092-2.38v-4.931c-2.052,0.096-3.767,0.271-5.145,0.527
		c-1.377,0.257-2.484,0.585-3.319,0.983c-0.837,0.399-1.436,0.865-1.796,1.396c-0.361,0.532-0.542,1.111-0.542,1.738
		c0,1.235,0.366,2.119,1.098,2.651C300.277,81.625,301.231,81.892,302.41,81.892z"/>
	<path fill="#666" d="M330.653,86.737c-2.546,0-4.498-0.717-5.856-2.151s-2.038-3.416-2.038-5.942V62.312h-2.992
		c-0.38,0-0.703-0.124-0.969-0.371c-0.267-0.247-0.399-0.617-0.399-1.112v-2.793l4.703-0.77l1.481-7.98
		c0.095-0.38,0.275-0.674,0.542-0.883c0.266-0.209,0.607-0.313,1.025-0.313h3.648v9.206h7.809v5.016h-7.809v15.846
		c0,0.911,0.223,1.624,0.67,2.137c0.446,0.514,1.059,0.77,1.838,0.77c0.437,0,0.803-0.052,1.098-0.156
		c0.294-0.104,0.551-0.214,0.77-0.328c0.218-0.114,0.413-0.223,0.584-0.327s0.342-0.157,0.513-0.157c0.209,0,0.38,0.053,0.513,0.157
		s0.275,0.261,0.428,0.47l2.109,3.42c-1.026,0.855-2.204,1.501-3.534,1.938C333.456,86.518,332.079,86.737,330.653,86.737z"/>
	<path fill="#666" d="M353.14,56.584c1.843,0,3.543,0.294,5.102,0.883c1.558,0.589,2.897,1.449,4.019,2.579
		c1.12,1.131,1.999,2.518,2.636,4.161c0.637,1.644,0.955,3.52,0.955,5.629c0,1.064-0.114,1.781-0.342,2.151
		c-0.229,0.371-0.666,0.556-1.312,0.556H346.1c0.114,1.501,0.38,2.798,0.799,3.891c0.417,1.093,0.969,1.995,1.652,2.707
		c0.685,0.713,1.496,1.245,2.437,1.597c0.941,0.352,1.981,0.527,3.121,0.527s2.123-0.133,2.95-0.399
		c0.826-0.266,1.548-0.561,2.166-0.884c0.617-0.322,1.158-0.617,1.624-0.883c0.466-0.267,0.917-0.399,1.354-0.399
		c0.589,0,1.026,0.219,1.312,0.655l2.023,2.565c-0.779,0.912-1.653,1.677-2.622,2.294c-0.969,0.618-1.98,1.111-3.035,1.482
		c-1.055,0.37-2.128,0.631-3.221,0.783s-2.151,0.229-3.178,0.229c-2.033,0-3.924-0.338-5.672-1.012
		c-1.748-0.675-3.268-1.672-4.56-2.993c-1.292-1.32-2.309-2.954-3.05-4.901c-0.74-1.947-1.111-4.204-1.111-6.769
		c0-1.995,0.323-3.871,0.969-5.629c0.646-1.757,1.572-3.287,2.779-4.588c1.206-1.301,2.679-2.332,4.417-3.092
		C348.994,56.964,350.955,56.584,353.14,56.584z M353.283,61.628c-2.052,0-3.658,0.58-4.816,1.738
		c-1.159,1.159-1.9,2.803-2.224,4.931h13.281c0-0.912-0.128-1.771-0.385-2.58c-0.257-0.807-0.642-1.515-1.154-2.123
		c-0.513-0.608-1.164-1.087-1.952-1.439C355.244,61.804,354.328,61.628,353.283,61.628z"/>
</g>
<g>
	<g>
		<g>
			<path fill="#666" d="M0,0v95.828h95.828V0H0z M10.648,4.326c3.216,0,5.823,2.607,5.823,5.823s-2.607,5.823-5.823,5.823
				s-5.823-2.607-5.823-5.823S7.432,4.326,10.648,4.326z M10.648,91.004c-3.216,0-5.823-2.607-5.823-5.823
				c0-3.216,2.607-5.823,5.823-5.823s5.823,2.607,5.823,5.823C16.471,88.397,13.864,91.004,10.648,91.004z M47.914,88.841
				c-22.603,0-40.927-18.324-40.927-40.927c0-22.603,18.324-40.927,40.927-40.927s40.927,18.323,40.927,40.927
				C88.841,70.517,70.517,88.841,47.914,88.841z M85.181,91.004c-3.216,0-5.823-2.607-5.823-5.823c0-3.216,2.607-5.823,5.823-5.823
				c3.216,0,5.823,2.607,5.823,5.823C91.004,88.397,88.397,91.004,85.181,91.004z M85.181,16.471c-3.216,0-5.823-2.607-5.823-5.823
				s2.607-5.823,5.823-5.823c3.216,0,5.823,2.607,5.823,5.823S88.397,16.471,85.181,16.471z"/>
		</g>
	</g>
</g>
<g>
	<g>
		<circle fill="#666" cx="47.914" cy="47.352" r="6.609"/>
	</g>
	<g>
		<path fill="#666" d="M81.116,40.766c-2.287-1.908-5.521-3.614-9.354-4.933c-0.769-0.265-1.564-0.515-2.383-0.751
			c0.135-0.55,0.259-1.093,0.368-1.625c1.836-8.914,0.533-15.861-3.402-18.13c-0.962-0.555-2.099-0.836-3.381-0.836
			c-3.692,0-8.37,2.302-13.173,6.481c-0.614,0.534-1.229,1.099-1.843,1.691c-0.41-0.393-0.819-0.771-1.226-1.133
			c-4.987-4.428-10.063-6.967-13.926-6.967c-1.323,0-2.494,0.29-3.481,0.861c-1.931,1.118-3.243,3.398-3.793,6.594
			c-0.506,2.935-0.362,6.589,0.417,10.566c0.157,0.802,0.34,1.62,0.547,2.451c-0.946,0.269-1.861,0.556-2.739,0.863
			c-8.04,2.803-12.841,7.085-12.841,11.455c0,2.282,1.337,4.634,3.868,6.801c2.381,2.039,5.723,3.829,9.666,5.177
			c0.644,0.22,1.312,0.428,2,0.626c-0.222,0.898-0.416,1.779-0.58,2.642c-1.588,8.365-0.277,14.663,3.508,16.846
			c0.997,0.575,2.186,0.866,3.533,0.866c3.842,0,8.8-2.408,13.604-6.607c0.513-0.448,1.028-0.924,1.544-1.422
			c0.667,0.642,1.335,1.251,2.001,1.824c4.671,4.019,9.247,6.233,12.887,6.233c1.312,0,2.476-0.289,3.46-0.859
			c1.975-1.144,3.341-3.479,3.948-6.755c0.572-3.082,0.446-6.871-0.363-10.959c-0.128-0.646-0.277-1.307-0.444-1.979
			c0.469-0.138,0.928-0.281,1.376-0.43c8.639-2.862,14.006-7.462,14.006-12.005C84.922,45.121,83.606,42.843,81.116,40.766z
			 M62.964,17.652c0.72,0,1.326,0.139,1.801,0.413c2.12,1.222,3.614,6.361,1.885,14.753c-0.099,0.482-0.211,0.973-0.333,1.471
			c-3.078-0.71-6.414-1.237-9.899-1.563c-2.038-2.9-4.148-5.535-6.255-7.807c0.568-0.546,1.137-1.069,1.704-1.562
			C55.972,19.785,60.12,17.652,62.964,17.652z M58.243,53.374c-1.164,2.018-2.349,3.93-3.546,5.728
			c-2.198,0.158-4.469,0.239-6.783,0.239c-2.315,0-4.551-0.07-6.694-0.208c-1.264-1.842-2.482-3.766-3.625-5.742
			c-1.144-1.976-2.199-3.971-3.157-5.958c0.96-2.003,2.013-4.006,3.147-5.972c1.14-1.978,2.342-3.888,3.585-5.709
			c2.214-0.169,4.476-0.257,6.744-0.257c2.288,0,4.548,0.087,6.751,0.254c1.224,1.807,2.42,3.712,3.568,5.695
			c1.167,2.016,2.233,3.999,3.192,5.934C60.463,49.361,59.399,51.369,58.243,53.374z M63.132,51.025
			c0.994,2.263,1.826,4.444,2.486,6.517c-2.144,0.489-4.462,0.884-6.906,1.177c0.765-1.213,1.522-2.468,2.27-3.765
			C61.737,53.645,62.454,52.332,63.132,51.025z M48.042,67.748c-1.498-1.619-2.993-3.409-4.45-5.327
			c1.409,0.055,2.851,0.082,4.322,0.082c1.511,0,3.005-0.034,4.476-0.101C50.944,64.368,49.49,66.157,48.042,67.748z M37.185,58.782
			c-2.432-0.27-4.714-0.637-6.82-1.098c0.656-2.112,1.463-4.307,2.4-6.532c0.662,1.279,1.361,2.555,2.095,3.823
			C35.611,56.275,36.388,57.545,37.185,58.782z M32.755,43.71c-0.918-2.177-1.706-4.322-2.35-6.4
			c2.113-0.471,4.366-0.857,6.706-1.15c-0.777,1.212-1.533,2.454-2.265,3.723C34.114,41.153,33.416,42.431,32.755,43.71z
			 M47.949,27.178c1.457,1.579,2.918,3.343,4.356,5.259c-1.449-0.068-2.914-0.104-4.39-0.104c-1.466,0-2.921,0.034-4.358,0.101
			C44.99,30.542,46.463,28.78,47.949,27.178z M60.969,39.86c-0.733-1.266-1.485-2.502-2.253-3.704
			c2.357,0.298,4.62,0.694,6.751,1.18c-0.638,2.042-1.433,4.179-2.369,6.372C62.429,42.44,61.72,41.156,60.969,39.86z
			 M29.042,31.977c-0.705-3.604-0.845-6.862-0.404-9.422c0.381-2.21,1.184-3.771,2.261-4.395c0.499-0.289,1.137-0.435,1.896-0.435
			c3.054,0,7.475,2.307,11.826,6.17c0.369,0.327,0.739,0.67,1.11,1.025c-2.154,2.313-4.277,4.942-6.302,7.799
			c-3.481,0.321-6.809,0.838-9.881,1.536C29.358,33.481,29.188,32.721,29.042,31.977z M25.463,56.338
			c-7.829-2.676-11.395-6.534-11.395-8.986c0-2.355,3.315-5.888,10.72-8.469c0.812-0.283,1.663-0.55,2.548-0.8
			c0.928,3.017,2.143,6.165,3.605,9.342c-1.487,3.231-2.718,6.428-3.654,9.485C26.659,56.729,26.05,56.538,25.463,56.338z
			 M32.903,77.148c-0.786,0-1.444-0.149-1.954-0.443c-2.04-1.177-3.444-5.813-1.981-13.517c0.151-0.797,0.332-1.616,0.541-2.455
			c3.015,0.668,6.361,1.153,9.971,1.444c2.045,2.881,4.186,5.527,6.355,7.85c-0.471,0.454-0.941,0.887-1.408,1.296
			C40.252,74.97,35.945,77.148,32.903,77.148z M66.882,62.379c1.606,8.116,0.054,13.135-2.068,14.364
			c-0.497,0.288-1.128,0.433-1.876,0.433c-2.841,0-6.786-1.993-10.824-5.467c-0.615-0.529-1.236-1.096-1.859-1.697
			c2.077-2.269,4.16-4.914,6.207-7.881c3.583-0.319,6.965-0.84,10.019-1.544C66.632,61.196,66.766,61.794,66.882,62.379z
			 M69.922,56.355c-0.404,0.134-0.818,0.263-1.241,0.388c-0.931-2.952-2.19-6.101-3.75-9.382c1.477-3.185,2.692-6.299,3.6-9.234
			c0.756,0.219,1.492,0.45,2.202,0.695c3.473,1.195,6.362,2.707,8.357,4.371c1.722,1.437,2.67,2.914,2.67,4.159
			C81.76,49.799,78.056,53.66,69.922,56.355z"/>
	</g>
</g>
</svg>
